<svg width="24" height="18" viewBox="0 0 24 18" fill="none" xmlns="http://www.w3.org/2000/svg">
<rect y="0.428711" width="24" height="17.1429" rx="4" fill="white"/>
<mask id="mask0" mask-type="alpha" maskUnits="userSpaceOnUse" x="0" y="0" width="24" height="18">
<rect y="0.428711" width="24" height="17.1429" rx="4" fill="white"/>
</mask>
<g mask="url(#mask0)">
<rect y="0.428711" width="24" height="17.1429" fill="#F1361D"/>
<path fill-rule="evenodd" clip-rule="evenodd" d="M8.63281 3.08646L9.46291 3.22798L10.0855 3.79497L10.227 2.96488L10.794 2.3423L9.9639 2.20079L9.34133 1.63379L9.19981 2.46388L8.63281 3.08646ZM10.8562 5.98973L11.5755 5.55195L12.4174 5.57142L11.9796 4.85209L11.9991 4.01025L11.2797 4.44803L10.4379 4.42856L10.8757 5.14789L10.8562 5.98973ZM9.88078 10.6892L9.17717 11.1519L9.16725 10.3099L8.70462 9.60625L9.54664 9.59633L10.2502 9.13371L10.2602 9.97572L10.7228 10.6793L9.88078 10.6892ZM10.4917 8.51275L11.3286 8.41998L12.0833 8.79341L11.9906 7.95646L12.364 7.20172L11.5271 7.29449L10.7723 6.92106L10.8651 7.75801L10.4917 8.51275Z" fill="#FFDC42"/>
<path fill-rule="evenodd" clip-rule="evenodd" d="M5.71389 7.47958L3.69863 8.91621L4.44219 6.55564L2.45312 5.08295L4.92794 5.06067L5.71389 2.71387L6.49984 5.06067L8.97466 5.08295L6.98559 6.55564L7.72915 8.91621L5.71389 7.47958Z" fill="#FFDC42"/>
</g>
</svg>
