<svg width="24" height="18" viewBox="0 0 24 18" fill="none" xmlns="http://www.w3.org/2000/svg">
<rect y="0.428711" width="24" height="17.1429" rx="4" fill="white"/>
<mask id="mask0" mask-type="alpha" maskUnits="userSpaceOnUse" x="0" y="0" width="24" height="18">
<rect y="0.428711" width="24" height="17.1429" rx="4" fill="white"/>
</mask>
<g mask="url(#mask0)">
<rect y="0.428711" width="24" height="17.1429" fill="#E92434"/>
<path fill-rule="evenodd" clip-rule="evenodd" d="M16.3029 9.65859L15.2531 10.9314L15.3246 9.28305L13.7896 8.67792L15.3794 8.23655L15.4806 6.58971L16.3917 7.96532L17.9892 7.55265L16.9624 8.84419L17.8485 10.236L16.3029 9.65859Z" fill="white"/>
<path fill-rule="evenodd" clip-rule="evenodd" d="M14.9168 12.1586C13.9757 13.3664 12.5074 14.1431 10.8577 14.1431C8.01738 14.1431 5.71484 11.8406 5.71484 9.00028C5.71484 6.15996 8.01738 3.85742 10.8577 3.85742C12.5076 3.85742 13.9761 4.63438 14.9171 5.84237C14.191 5.31468 13.278 5.00037 12.2865 5.00037C9.91952 5.00037 8.00074 6.79123 8.00074 9.00037C8.00074 11.2095 9.91952 13.0004 12.2865 13.0004C13.2779 13.0004 14.1907 12.6862 14.9168 12.1586Z" fill="white"/>
</g>
</svg>
