<svg width="26" height="26" viewBox="0 0 26 26" fill="none" xmlns="http://www.w3.org/2000/svg">
<path d="M21.3203 13.4281C21.3203 12.9081 20.9226 12.5105 20.4026 12.5105C19.8826 12.5105 19.485 12.9081 19.485 13.4281C19.485 17.007 16.5791 19.9128 13.0003 19.9128C9.42147 19.9128 6.51559 17.007 6.51559 13.4281C6.51559 12.9081 6.11794 12.5105 5.59794 12.5105C5.07794 12.5105 4.6803 12.9081 4.6803 13.4281C4.6803 17.6799 7.86147 21.2587 12.0826 21.7175V24.1646H8.74853C8.22853 24.1646 7.83089 24.5623 7.83089 25.0823C7.83089 25.6023 8.22853 25.9999 8.74853 25.9999H17.2521C17.7721 25.9999 18.1697 25.6023 18.1697 25.0823C18.1697 24.5623 17.7721 24.1646 17.2521 24.1646H13.9179V21.7175C18.1391 21.2587 21.3203 17.6799 21.3203 13.4281Z" fill="white"/>
<path d="M12.9998 0C10.1857 0 7.89154 2.29412 7.89154 5.10823V13.3976C7.89154 16.2424 10.1857 18.5059 12.9998 18.5365C15.8139 18.5365 18.108 16.2424 18.108 13.4282V5.10823C18.108 2.29412 15.8139 0 12.9998 0Z" fill="white"/>
</svg>
