<svg width="26" height="26" viewBox="0 0 26 26" fill="none" xmlns="http://www.w3.org/2000/svg">
<path d="M21.3202 13.4281C21.3202 12.9081 20.9225 12.5105 20.4025 12.5105C19.8825 12.5105 19.4849 12.9081 19.4849 13.4281C19.4849 17.007 16.579 19.9128 13.0002 19.9128C9.42135 19.9128 6.51547 17.007 6.51547 13.4281C6.51547 12.9081 6.11782 12.5105 5.59782 12.5105C5.07782 12.5105 4.68018 12.9081 4.68018 13.4281C4.68018 17.6799 7.86135 21.2587 12.0825 21.7175V24.1646H8.74841C8.22841 24.1646 7.83076 24.5623 7.83076 25.0823C7.83076 25.6023 8.22841 25.9999 8.74841 25.9999H17.2519C17.7719 25.9999 18.1696 25.6023 18.1696 25.0823C18.1696 24.5623 17.7719 24.1646 17.2519 24.1646H13.9178V21.7175C18.139 21.2587 21.3202 17.6799 21.3202 13.4281Z" fill="white"/>
<path d="M12.9998 0C10.1857 0 7.8916 2.29412 7.8916 5.10823V13.3976C7.8916 16.2424 10.1857 18.5059 12.9998 18.5365C15.814 18.5365 18.1081 16.2424 18.1081 13.4282V5.10823C18.1081 2.29412 15.814 0 12.9998 0Z" fill="white"/>
</svg>
