<svg width="759" height="690" viewBox="0 0 759 690" fill="none" xmlns="http://www.w3.org/2000/svg">
<path d="M78.1602 610H319.215C347.961 610 374 585.428 374 555.227C374 529.047 354.131 507.1 329.486 501.718C328.643 501.534 327.995 500.846 327.867 499.993C322.458 463.969 291.899 436.055 254.689 434.772C253.908 434.745 253.202 434.276 252.881 433.564C235.281 394.578 196.453 369 153.398 369C99.2441 369 53.3106 409.476 45.4615 462.553C45.3606 463.235 44.9199 463.824 44.295 464.116C17.4937 476.617 0 503.481 0 533.318C0 575.596 34.4117 610 78.1602 610Z" fill="white"/>
<path d="M78.1602 610H319.215C347.961 610 374 585.428 374 555.227C374 529.047 354.131 507.1 329.486 501.718C328.643 501.534 327.995 500.846 327.867 499.993C322.458 463.969 291.899 436.055 254.689 434.772C253.908 434.745 253.202 434.276 252.881 433.564C235.281 394.578 196.453 369 153.398 369C99.2441 369 53.3106 409.476 45.4615 462.553C45.3606 463.235 44.9199 463.824 44.295 464.116C17.4937 476.617 0 503.481 0 533.318C0 575.596 34.4117 610 78.1602 610Z" fill="url(#paint0_linear)"/>
<path d="M613.975 321.291C628.675 326.891 626.475 341.491 619.475 352.091C614.475 359.491 482.975 547.591 470.875 557.491C462.075 564.591 450.075 565.391 430.075 554.391C410.075 543.391 362.475 518.091 346.475 506.391C339.375 501.191 339.475 490.391 345.075 483.191C377.175 442.391 470.075 328.091 498.975 295.491C504.475 289.291 511.275 290.591 518.675 292.991C524.375 294.991 603.275 317.291 613.975 321.291Z" fill="#351D44"/>
<path d="M601.075 323.091C609.475 326.991 613.475 334.891 606.775 344.991C602.075 352.091 479.175 523.791 469.975 535.491C459.675 548.591 447.875 546.791 426.975 535.691C407.775 525.591 363.675 499.991 358.775 495.891C352.375 490.591 351.475 482.991 356.875 476.191C389.975 434.691 470.675 336.091 500.075 302.091C505.275 296.091 511.775 297.391 518.775 299.791C524.175 301.591 591.275 318.591 601.075 323.091Z" fill="#525252"/>
<path d="M601.075 323.091C609.475 326.991 613.475 334.891 606.775 344.991C602.075 352.091 479.175 523.791 469.975 535.491C459.675 548.591 447.875 546.791 426.975 535.691C407.775 525.591 363.675 499.991 358.775 495.891C352.375 490.591 351.475 482.991 356.875 476.191C389.975 434.691 470.675 336.091 500.075 302.091C505.275 296.091 511.775 297.391 518.775 299.791C524.175 301.591 591.275 318.591 601.075 323.091Z" fill="url(#paint1_linear)"/>
<path d="M583.175 315.191C583.175 315.191 575.775 324.391 569.075 321.991C562.275 319.491 541.975 314.591 534.675 312.191C527.275 309.691 527.275 299.291 527.275 299.291L583.175 315.191Z" fill="#351D44"/>
<path d="M564.021 316.2C562.567 315.527 561.953 313.762 562.649 312.259C563.345 310.755 565.088 310.082 566.541 310.755C567.995 311.427 568.609 313.192 567.913 314.695C567.217 316.199 565.474 316.872 564.021 316.2Z" fill="#1E1527"/>
<path d="M563.575 312.691C563.175 313.691 563.475 314.791 564.475 315.191C565.375 315.591 566.475 315.191 566.975 314.191C567.375 313.191 567.075 312.091 566.075 311.691C565.175 311.291 564.075 311.791 563.575 312.691Z" fill="url(#paint2_linear)"/>
<path d="M537.175 306.491L556.375 311.991C557.075 312.191 557.875 311.791 558.075 311.091C558.275 310.391 557.875 309.591 557.175 309.391L537.975 303.891C537.275 303.691 536.475 304.091 536.275 304.791C535.975 305.491 536.375 306.291 537.175 306.491Z" fill="#1E1527"/>
<path d="M402.775 532.591C403.375 533.191 401.975 535.691 401.175 535.591C400.075 535.491 387.575 528.291 387.075 527.491C386.675 526.891 388.175 524.491 388.975 524.691C389.775 524.991 402.375 532.191 402.775 532.591Z" fill="#351D44"/>
<path d="M405.633 538.218C404.735 537.945 404.253 536.91 404.558 535.906C404.862 534.902 405.837 534.309 406.736 534.581C407.634 534.854 408.116 535.889 407.811 536.893C407.507 537.897 406.532 538.49 405.633 538.218Z" fill="#351D44"/>
<path d="M383.023 525.488C382.124 525.216 381.643 524.181 381.947 523.177C382.252 522.173 383.227 521.58 384.126 521.852C385.024 522.125 385.505 523.16 385.201 524.164C384.896 525.168 383.921 525.761 383.023 525.488Z" fill="#351D44"/>
<path d="M611.275 356.891C609.975 357.091 599.775 372.591 599.075 373.791C597.975 375.691 602.175 379.191 604.175 376.291C605.475 374.491 614.775 361.691 615.175 360.191C615.875 357.491 613.075 356.691 611.275 356.891Z" fill="#351D44"/>
<path d="M616.975 359.091L616.175 362.691L603.075 378.891C603.075 378.891 599.675 377.291 602.175 373.691C604.675 370.091 611.675 358.291 613.675 357.991C615.575 357.691 616.975 359.091 616.975 359.091Z" fill="#1E1527"/>
<path d="M596.275 378.391C594.975 378.591 584.775 394.091 584.075 395.291C582.975 397.191 587.175 400.691 589.175 397.791C590.475 395.991 599.775 383.191 600.175 381.691C600.875 378.991 598.075 378.191 596.275 378.391Z" fill="#351D44"/>
<path d="M601.975 380.591L601.175 384.191L588.075 400.391C588.075 400.391 584.675 398.791 587.175 395.191C589.675 391.591 596.675 379.791 598.675 379.491C600.575 379.191 601.975 380.591 601.975 380.591Z" fill="#1E1527"/>
<path d="M538.975 343.291C553.675 348.891 551.475 363.491 544.475 374.091C539.475 381.491 407.975 569.591 395.875 579.491C387.075 586.591 375.075 587.391 355.075 576.391C335.075 565.391 287.475 540.091 271.475 528.391C264.375 523.191 264.475 512.391 270.075 505.191C302.175 464.391 395.075 350.091 423.975 317.491C429.475 311.291 436.275 312.591 443.675 314.991C449.375 316.991 528.275 339.291 538.975 343.291Z" fill="#351D44"/>
<path d="M526.075 345.091C534.475 348.991 538.475 356.891 531.775 366.991C527.075 374.091 404.175 545.791 394.975 557.491C384.675 570.591 372.875 568.791 351.975 557.691C332.775 547.591 288.675 521.991 283.775 517.891C277.375 512.591 276.475 504.991 281.875 498.191C314.975 456.691 395.675 358.091 425.075 324.091C430.275 318.091 436.775 319.391 443.775 321.791C449.175 323.591 516.275 340.591 526.075 345.091Z" fill="#241C87"/>
<path d="M526.075 345.091C534.475 348.991 538.475 356.891 531.775 366.991C527.075 374.091 404.175 545.791 394.975 557.491C384.675 570.591 372.875 568.791 351.975 557.691C332.775 547.591 288.675 521.991 283.775 517.891C277.375 512.591 276.475 504.991 281.875 498.191C314.975 456.691 395.675 358.091 425.075 324.091C430.275 318.091 436.775 319.391 443.775 321.791C449.175 323.591 516.275 340.591 526.075 345.091Z" fill="url(#paint3_linear)"/>
<path d="M508.175 337.191C508.175 337.191 500.775 346.391 494.075 343.991C487.275 341.491 466.975 336.591 459.675 334.191C452.275 331.691 452.275 321.291 452.275 321.291L508.175 337.191Z" fill="#351D44"/>
<path d="M489.021 338.2C487.567 337.527 486.953 335.762 487.649 334.259C488.345 332.755 490.088 332.082 491.541 332.755C492.995 333.427 493.609 335.192 492.913 336.695C492.217 338.199 490.474 338.872 489.021 338.2Z" fill="#1E1527"/>
<path d="M488.575 334.691C488.175 335.691 488.475 336.791 489.475 337.191C490.375 337.591 491.475 337.191 491.975 336.191C492.375 335.191 492.075 334.091 491.075 333.691C490.175 333.291 489.075 333.791 488.575 334.691Z" fill="url(#paint4_linear)"/>
<path d="M462.175 328.491L481.375 333.991C482.075 334.191 482.875 333.791 483.075 333.091C483.275 332.391 482.875 331.591 482.175 331.391L462.975 325.891C462.275 325.691 461.475 326.091 461.275 326.791C460.975 327.491 461.375 328.291 462.175 328.491Z" fill="#1E1527"/>
<path d="M327.775 554.591C328.375 555.191 326.975 557.691 326.175 557.591C325.075 557.491 312.575 550.291 312.075 549.491C311.675 548.891 313.175 546.491 313.975 546.691C314.775 546.991 327.375 554.191 327.775 554.591Z" fill="#351D44"/>
<path d="M330.634 560.218C329.735 559.945 329.254 558.91 329.558 557.906C329.863 556.902 330.838 556.309 331.736 556.581C332.635 556.854 333.116 557.889 332.812 558.893C332.507 559.897 331.532 560.49 330.634 560.218Z" fill="#351D44"/>
<path d="M308.023 547.488C307.124 547.216 306.643 546.181 306.947 545.177C307.252 544.173 308.227 543.58 309.126 543.852C310.024 544.125 310.505 545.16 310.201 546.164C309.896 547.168 308.921 547.761 308.023 547.488Z" fill="#351D44"/>
<path d="M536.275 378.891C534.975 379.091 524.775 394.591 524.075 395.791C522.975 397.691 527.175 401.191 529.175 398.291C530.475 396.491 539.775 383.691 540.175 382.191C540.875 379.491 538.075 378.691 536.275 378.891Z" fill="#351D44"/>
<path d="M541.975 381.091L541.175 384.691L528.075 400.891C528.075 400.891 524.675 399.291 527.175 395.691C529.675 392.091 536.675 380.291 538.675 379.991C540.575 379.691 541.975 381.091 541.975 381.091Z" fill="#1E1527"/>
<path d="M521.275 400.391C519.975 400.591 509.775 416.091 509.075 417.291C507.975 419.191 512.175 422.691 514.175 419.791C515.475 417.991 524.775 405.191 525.175 403.691C525.875 400.991 523.075 400.191 521.275 400.391Z" fill="#351D44"/>
<path d="M526.975 402.591L526.175 406.191L513.075 422.391C513.075 422.391 509.675 420.791 512.175 417.191C514.675 413.591 521.675 401.791 523.675 401.491C525.575 401.191 526.975 402.591 526.975 402.591Z" fill="#1E1527"/>
<path d="M642.571 690H372.402C340.184 690 311 662.471 311 628.636C311 599.246 333.361 574.617 361.061 568.651C361.904 568.47 362.552 567.782 362.679 566.928C368.677 526.435 403.042 495.048 444.877 493.681C445.658 493.656 446.364 493.187 446.684 492.474C466.38 448.717 509.939 420 558.246 420C618.986 420 670.498 465.414 679.238 524.943C679.339 525.625 679.78 526.214 680.405 526.505C710.512 540.485 730.171 570.618 730.171 604.091C730.171 651.456 691.603 690 642.571 690Z" fill="white"/>
<path d="M642.571 690H372.402C340.184 690 311 662.471 311 628.636C311 599.246 333.361 574.617 361.061 568.651C361.904 568.47 362.552 567.782 362.679 566.928C368.677 526.435 403.042 495.048 444.877 493.681C445.658 493.656 446.364 493.187 446.684 492.474C466.38 448.717 509.939 420 558.246 420C618.986 420 670.498 465.414 679.238 524.943C679.339 525.625 679.78 526.214 680.405 526.505C710.512 540.485 730.171 570.618 730.171 604.091C730.171 651.456 691.603 690 642.571 690Z" fill="url(#paint5_linear)"/>
<circle cx="576.934" cy="112.02" r="36.9341" fill="url(#paint6_linear)"/>
<g clip-path="url(#clip0)">
<path d="M406.482 421.956C405.42 416.938 406.712 413.451 407.35 412.132C407.526 411.767 407.862 411.505 408.258 411.423L412.319 410.565C412.916 410.439 413.347 409.917 413.358 409.306L413.399 400.675C413.412 400 412.909 399.425 412.237 399.349L404.022 398.218C403.481 398.153 402.957 398.432 402.708 398.916C401 402.261 397.357 410.843 399.997 423.326C402.637 435.809 409.443 442.18 412.36 444.547C412.784 444.889 413.376 444.932 413.844 444.653L420.898 440.293C421.479 439.951 421.707 439.225 421.424 438.613L417.891 430.739C417.634 430.185 417.029 429.882 416.432 430.008L412.372 430.868C411.976 430.953 411.562 430.849 411.254 430.587C410.137 429.639 407.543 426.974 406.482 421.956Z" fill="white"/>
<path d="M419.619 428.174C419.012 427.779 418.841 426.968 419.235 426.361C422.19 421.811 420.903 415.728 416.359 412.764C415.753 412.369 415.581 411.557 415.976 410.951C416.37 410.344 417.182 410.173 417.789 410.567C423.544 414.322 425.174 422.027 421.432 427.791C421.037 428.397 420.226 428.569 419.619 428.174Z" fill="white"/>
<path d="M425.11 431.748C424.504 431.353 424.332 430.541 424.727 429.935C429.65 422.351 427.506 412.213 419.933 407.273C419.326 406.878 419.155 406.066 419.549 405.46C419.944 404.853 420.756 404.681 421.362 405.076C430.147 410.807 432.635 422.567 426.923 431.364C426.734 431.656 426.436 431.86 426.096 431.932C425.756 432.004 425.402 431.937 425.11 431.748Z" fill="white"/>
</g>
<defs>
<linearGradient id="paint0_linear" x1="259.526" y1="431.801" x2="235.217" y2="598.938" gradientUnits="userSpaceOnUse">
<stop stop-color="#2BAAEC"/>
<stop offset="1" stop-color="#1D50E0"/>
</linearGradient>
<linearGradient id="paint1_linear" x1="579.999" y1="330" x2="614.493" y2="453.497" gradientUnits="userSpaceOnUse">
<stop stop-color="#666666"/>
<stop offset="1" stop-color="#454545"/>
</linearGradient>
<linearGradient id="paint2_linear" x1="566.972" y1="310.553" x2="564.078" y2="315.83" gradientUnits="userSpaceOnUse">
<stop stop-color="#52D4E8"/>
<stop offset="1" stop-color="white"/>
</linearGradient>
<linearGradient id="paint3_linear" x1="406.743" y1="319.78" x2="406.743" y2="566.676" gradientUnits="userSpaceOnUse">
<stop stop-color="#4940AA"/>
<stop offset="1" stop-color="#130F54"/>
</linearGradient>
<linearGradient id="paint4_linear" x1="491.972" y1="332.553" x2="489.078" y2="337.83" gradientUnits="userSpaceOnUse">
<stop stop-color="#52D4E8"/>
<stop offset="1" stop-color="white"/>
</linearGradient>
<linearGradient id="paint5_linear" x1="439.3" y1="490.358" x2="466.524" y2="677.61" gradientUnits="userSpaceOnUse">
<stop stop-color="#B9A5FF"/>
<stop offset="1" stop-color="#7E61E1"/>
</linearGradient>
<linearGradient id="paint6_linear" x1="576.934" y1="75.0857" x2="576.934" y2="148.954" gradientUnits="userSpaceOnUse">
<stop stop-color="#FFE76A"/>
<stop offset="1" stop-color="#FFB138"/>
</linearGradient>
<clipPath id="clip0">
<rect x="405.437" y="394.712" width="38" height="38" transform="rotate(33.0562 405.437 394.712)" fill="white"/>
</clipPath>
</defs>
</svg>
