<svg width="467" height="540" viewBox="0 0 467 540" fill="none" xmlns="http://www.w3.org/2000/svg">
<mask id="mask0" mask-type="alpha" maskUnits="userSpaceOnUse" x="0" y="0" width="467" height="540">
<rect x="0.5" y="0.5" width="466" height="539" rx="11.5" fill="white" stroke="white"/>
</mask>
<g mask="url(#mask0)">
<path d="M-104.84 575H136.215C164.961 575 191 550.428 191 520.227C191 494.047 171.131 472.1 146.486 466.718C145.643 466.534 144.995 465.846 144.867 464.993C139.458 428.969 108.899 401.055 71.6889 399.772C70.9077 399.745 70.2023 399.276 69.8807 398.564C52.281 359.578 13.4532 334 -29.6016 334C-83.7559 334 -129.689 374.476 -137.539 427.553C-137.639 428.235 -138.08 428.824 -138.705 429.116C-165.506 441.617 -183 468.481 -183 498.318C-183 540.596 -148.588 575 -104.84 575Z" fill="white"/>
<path d="M-104.84 575H136.215C164.961 575 191 550.428 191 520.227C191 494.047 171.131 472.1 146.486 466.718C145.643 466.534 144.995 465.846 144.867 464.993C139.458 428.969 108.899 401.055 71.6889 399.772C70.9077 399.745 70.2023 399.276 69.8807 398.564C52.281 359.578 13.4532 334 -29.6016 334C-83.7559 334 -129.689 374.476 -137.539 427.553C-137.639 428.235 -138.08 428.824 -138.705 429.116C-165.506 441.617 -183 468.481 -183 498.318C-183 540.596 -148.588 575 -104.84 575Z" fill="url(#paint0_linear)"/>
<path d="M459.571 655H189.402C157.184 655 128 627.471 128 593.636C128 564.246 150.361 539.617 178.061 533.651C178.904 533.47 179.552 532.782 179.679 531.928C185.677 491.435 220.042 460.048 261.877 458.681C262.658 458.656 263.364 458.187 263.684 457.474C283.38 413.717 326.939 385 375.246 385C435.985 385 487.498 430.414 496.239 489.943C496.339 490.625 496.78 491.214 497.405 491.505C527.512 505.485 547.171 535.618 547.171 569.091C547.171 616.456 508.603 655 459.571 655Z" fill="white"/>
<path d="M459.571 655H189.402C157.184 655 128 627.471 128 593.636C128 564.246 150.361 539.617 178.061 533.651C178.904 533.47 179.552 532.782 179.679 531.928C185.677 491.435 220.042 460.048 261.877 458.681C262.658 458.656 263.364 458.187 263.684 457.474C283.38 413.717 326.939 385 375.246 385C435.985 385 487.498 430.414 496.239 489.943C496.339 490.625 496.78 491.214 497.405 491.505C527.512 505.485 547.171 535.618 547.171 569.091C547.171 616.456 508.603 655 459.571 655Z" fill="url(#paint1_linear)"/>
<circle cx="393.934" cy="77.0198" r="36.9341" fill="url(#paint2_linear)"/>
</g>
<defs>
<linearGradient id="paint0_linear" x1="76.5262" y1="396.801" x2="52.2172" y2="563.938" gradientUnits="userSpaceOnUse">
<stop stop-color="#2BAAEC"/>
<stop offset="1" stop-color="#1D50E0"/>
</linearGradient>
<linearGradient id="paint1_linear" x1="256.3" y1="455.358" x2="283.524" y2="642.61" gradientUnits="userSpaceOnUse">
<stop stop-color="#B9A5FF"/>
<stop offset="1" stop-color="#7E61E1"/>
</linearGradient>
<linearGradient id="paint2_linear" x1="393.934" y1="40.0857" x2="393.934" y2="113.954" gradientUnits="userSpaceOnUse">
<stop stop-color="#FFE76A"/>
<stop offset="1" stop-color="#FFB138"/>
</linearGradient>
</defs>
</svg>
