<svg width="595" height="608" viewBox="0 0 595 608" fill="none" xmlns="http://www.w3.org/2000/svg">
<path d="M246.468 509.928L76.087 268.785C71.9056 262.865 75.3079 257.418 83.6483 256.651L245.506 241.952C253.846 241.185 264.087 245.433 268.268 251.353L438.648 492.496C442.83 498.416 439.428 503.863 431.087 504.63L269.23 519.329C260.904 520.065 250.649 515.848 246.468 509.928Z" fill="#757575"/>
<path d="M255.981 283.429L243.297 265.494C242.715 264.672 243.186 263.892 244.339 263.796L255.42 262.78C256.573 262.685 258.003 263.271 258.585 264.094L271.27 282.028C271.851 282.851 271.38 283.631 270.227 283.726L259.146 284.742C257.979 284.868 256.563 284.251 255.981 283.429Z" fill="#D6D8ED"/>
<path d="M255.981 283.429L243.297 265.494C242.715 264.672 243.186 263.892 244.339 263.796L255.42 262.78C256.573 262.685 258.003 263.271 258.585 264.094L271.27 282.028C271.851 282.851 271.38 283.631 270.227 283.726L259.146 284.742C257.979 284.868 256.563 284.251 255.981 283.429Z" fill="url(#paint0_linear)"/>
<path d="M255.981 283.429L243.297 265.494C242.715 264.672 243.186 263.892 244.339 263.796L255.42 262.78C256.573 262.685 258.003 263.271 258.585 264.094L271.27 282.028C271.851 282.851 271.38 283.631 270.227 283.726L259.146 284.742C257.979 284.868 256.563 284.251 255.981 283.429Z" fill="#262626"/>
<path d="M266.939 298.94L259.378 288.247C258.907 287.586 259.294 286.989 260.222 286.901L272.186 285.813C273.115 285.724 274.226 286.2 274.697 286.861L282.258 297.554C282.729 298.215 282.343 298.812 281.414 298.901L269.45 299.989C268.522 300.077 267.41 299.601 266.939 298.94Z" fill="#D6D8ED"/>
<path d="M266.939 298.94L259.378 288.247C258.907 287.586 259.294 286.989 260.222 286.901L272.186 285.813C273.115 285.724 274.226 286.2 274.697 286.861L282.258 297.554C282.729 298.215 282.343 298.812 281.414 298.901L269.45 299.989C268.522 300.077 267.41 299.601 266.939 298.94Z" fill="url(#paint1_linear)"/>
<path d="M266.939 298.94L259.378 288.247C258.907 287.586 259.294 286.989 260.222 286.901L272.186 285.813C273.115 285.724 274.226 286.2 274.697 286.861L282.258 297.554C282.729 298.215 282.343 298.812 281.414 298.901L269.45 299.989C268.522 300.077 267.41 299.601 266.939 298.94Z" fill="#262626"/>
<path d="M277.831 314.348L270.27 303.655C269.799 302.994 270.185 302.397 271.114 302.308L283.078 301.22C284.006 301.132 285.118 301.608 285.589 302.269L293.15 312.962C293.621 313.623 293.234 314.22 292.306 314.308L280.342 315.396C279.413 315.485 278.272 314.995 277.831 314.348Z" fill="#D6D8ED"/>
<path d="M277.831 314.348L270.27 303.655C269.799 302.994 270.185 302.397 271.114 302.308L283.078 301.22C284.006 301.132 285.118 301.608 285.589 302.269L293.15 312.962C293.621 313.623 293.234 314.22 292.306 314.308L280.342 315.396C279.413 315.485 278.272 314.995 277.831 314.348Z" fill="url(#paint2_linear)"/>
<path d="M277.831 314.348L270.27 303.655C269.799 302.994 270.185 302.397 271.114 302.308L283.078 301.22C284.006 301.132 285.118 301.608 285.589 302.269L293.15 312.962C293.621 313.623 293.234 314.22 292.306 314.308L280.342 315.396C279.413 315.485 278.272 314.995 277.831 314.348Z" fill="#262626"/>
<path d="M288.698 329.743L281.137 319.05C280.666 318.389 281.052 317.792 281.981 317.704L293.945 316.615C294.873 316.527 295.985 317.003 296.456 317.664L304.017 328.357C304.488 329.018 304.102 329.615 303.173 329.704L291.209 330.792C290.281 330.88 289.169 330.404 288.698 329.743Z" fill="#D6D8ED"/>
<path d="M288.698 329.743L281.137 319.05C280.666 318.389 281.052 317.792 281.981 317.704L293.945 316.615C294.873 316.527 295.985 317.003 296.456 317.664L304.017 328.357C304.488 329.018 304.102 329.615 303.173 329.704L291.209 330.792C290.281 330.88 289.169 330.404 288.698 329.743Z" fill="url(#paint3_linear)"/>
<path d="M288.698 329.743L281.137 319.05C280.666 318.389 281.052 317.792 281.981 317.704L293.945 316.615C294.873 316.527 295.985 317.003 296.456 317.664L304.017 328.357C304.488 329.018 304.102 329.615 303.173 329.704L291.209 330.792C290.281 330.88 289.169 330.404 288.698 329.743Z" fill="#262626"/>
<path d="M299.589 345.15L292.028 334.457C291.556 333.796 291.943 333.199 292.871 333.111L304.836 332.022C305.764 331.934 306.875 332.41 307.347 333.071L314.907 343.764C315.379 344.425 314.992 345.022 314.064 345.111L302.099 346.199C301.171 346.287 300.06 345.811 299.589 345.15Z" fill="#D6D8ED"/>
<path d="M299.589 345.15L292.028 334.457C291.556 333.796 291.943 333.199 292.871 333.111L304.836 332.022C305.764 331.934 306.875 332.41 307.347 333.071L314.907 343.764C315.379 344.425 314.992 345.022 314.064 345.111L302.099 346.199C301.171 346.287 300.06 345.811 299.589 345.15Z" fill="url(#paint4_linear)"/>
<path d="M299.589 345.15L292.028 334.457C291.556 333.796 291.943 333.199 292.871 333.111L304.836 332.022C305.764 331.934 306.875 332.41 307.347 333.071L314.907 343.764C315.379 344.425 314.992 345.022 314.064 345.111L302.099 346.199C301.171 346.287 300.06 345.811 299.589 345.15Z" fill="#262626"/>
<path d="M310.479 360.558L302.918 349.865C302.447 349.204 302.834 348.607 303.762 348.519L315.726 347.43C316.655 347.342 317.766 347.818 318.237 348.479L325.798 359.172C326.269 359.833 325.883 360.43 324.955 360.519L312.99 361.607C312.031 361.681 310.92 361.205 310.479 360.558Z" fill="#D6D8ED"/>
<path d="M310.479 360.558L302.918 349.865C302.447 349.204 302.834 348.607 303.762 348.519L315.726 347.43C316.655 347.342 317.766 347.818 318.237 348.479L325.798 359.172C326.269 359.833 325.883 360.43 324.955 360.519L312.99 361.607C312.031 361.681 310.92 361.205 310.479 360.558Z" fill="url(#paint5_linear)"/>
<path d="M310.479 360.558L302.918 349.865C302.447 349.204 302.834 348.607 303.762 348.519L315.726 347.43C316.655 347.342 317.766 347.818 318.237 348.479L325.798 359.172C326.269 359.833 325.883 360.43 324.955 360.519L312.99 361.607C312.031 361.681 310.92 361.205 310.479 360.558Z" fill="#262626"/>
<path d="M321.343 375.953L313.783 365.26C313.311 364.599 313.698 364.002 314.626 363.914L326.591 362.825C327.519 362.737 328.63 363.213 329.102 363.874L336.662 374.567C337.134 375.228 336.747 375.825 335.819 375.914L323.854 377.002C322.926 377.09 321.815 376.614 321.343 375.953Z" fill="#D6D8ED"/>
<path d="M321.343 375.953L313.783 365.26C313.311 364.599 313.698 364.002 314.626 363.914L326.591 362.825C327.519 362.737 328.63 363.213 329.102 363.874L336.662 374.567C337.134 375.228 336.747 375.825 335.819 375.914L323.854 377.002C322.926 377.09 321.815 376.614 321.343 375.953Z" fill="url(#paint6_linear)"/>
<path d="M321.343 375.953L313.783 365.26C313.311 364.599 313.698 364.002 314.626 363.914L326.591 362.825C327.519 362.737 328.63 363.213 329.102 363.874L336.662 374.567C337.134 375.228 336.747 375.825 335.819 375.914L323.854 377.002C322.926 377.09 321.815 376.614 321.343 375.953Z" fill="#262626"/>
<path d="M332.237 391.362L324.677 380.669C324.205 380.008 324.592 379.411 325.52 379.322L337.485 378.234C338.413 378.146 339.524 378.622 339.996 379.283L347.556 389.976C348.028 390.637 347.641 391.234 346.713 391.323L334.748 392.411C333.834 392.469 332.678 392.009 332.237 391.362Z" fill="#D6D8ED"/>
<path d="M332.237 391.362L324.677 380.669C324.205 380.008 324.592 379.411 325.52 379.322L337.485 378.234C338.413 378.146 339.524 378.622 339.996 379.283L347.556 389.976C348.028 390.637 347.641 391.234 346.713 391.323L334.748 392.411C333.834 392.469 332.678 392.009 332.237 391.362Z" fill="url(#paint7_linear)"/>
<path d="M332.237 391.362L324.677 380.669C324.205 380.008 324.592 379.411 325.52 379.322L337.485 378.234C338.413 378.146 339.524 378.622 339.996 379.283L347.556 389.976C348.028 390.637 347.641 391.234 346.713 391.323L334.748 392.411C333.834 392.469 332.678 392.009 332.237 391.362Z" fill="#262626"/>
<path d="M343.098 406.755L335.537 396.062C335.066 395.401 335.452 394.804 336.381 394.715L348.345 393.627C349.273 393.539 350.385 394.015 350.856 394.676L358.417 405.369C358.888 406.03 358.501 406.627 357.573 406.716L345.609 407.804C344.695 407.862 343.569 407.416 343.098 406.755Z" fill="#D6D8ED"/>
<path d="M343.098 406.755L335.537 396.062C335.066 395.401 335.452 394.804 336.381 394.715L348.345 393.627C349.273 393.539 350.385 394.015 350.856 394.676L358.417 405.369C358.888 406.03 358.501 406.627 357.573 406.716L345.609 407.804C344.695 407.862 343.569 407.416 343.098 406.755Z" fill="url(#paint8_linear)"/>
<path d="M343.098 406.755L335.537 396.062C335.066 395.401 335.452 394.804 336.381 394.715L348.345 393.627C349.273 393.539 350.385 394.015 350.856 394.676L358.417 405.369C358.888 406.03 358.501 406.627 357.573 406.716L345.609 407.804C344.695 407.862 343.569 407.416 343.098 406.755Z" fill="#262626"/>
<path d="M353.992 422.164L346.431 411.471C345.96 410.81 346.346 410.213 347.275 410.124L359.239 409.036C360.167 408.948 361.279 409.424 361.75 410.085L369.311 420.778C369.782 421.439 369.395 422.036 368.467 422.124L356.503 423.212C355.589 423.271 354.463 422.825 353.992 422.164Z" fill="#D6D8ED"/>
<path d="M353.992 422.164L346.431 411.471C345.96 410.81 346.346 410.213 347.275 410.124L359.239 409.036C360.167 408.948 361.279 409.424 361.75 410.085L369.311 420.778C369.782 421.439 369.395 422.036 368.467 422.124L356.503 423.212C355.589 423.271 354.463 422.825 353.992 422.164Z" fill="url(#paint9_linear)"/>
<path d="M353.992 422.164L346.431 411.471C345.96 410.81 346.346 410.213 347.275 410.124L359.239 409.036C360.167 408.948 361.279 409.424 361.75 410.085L369.311 420.778C369.782 421.439 369.395 422.036 368.467 422.124L356.503 423.212C355.589 423.271 354.463 422.825 353.992 422.164Z" fill="#262626"/>
<path d="M364.856 437.558L357.295 426.865C356.824 426.204 357.21 425.607 358.138 425.519L370.103 424.431C371.031 424.342 372.142 424.818 372.614 425.479L380.175 436.172C380.646 436.833 380.259 437.43 379.331 437.519L367.367 438.607C366.452 438.665 365.327 438.219 364.856 437.558Z" fill="#D6D8ED"/>
<path d="M364.856 437.558L357.295 426.865C356.824 426.204 357.21 425.607 358.138 425.519L370.103 424.431C371.031 424.342 372.142 424.818 372.614 425.479L380.175 436.172C380.646 436.833 380.259 437.43 379.331 437.519L367.367 438.607C366.452 438.665 365.327 438.219 364.856 437.558Z" fill="url(#paint10_linear)"/>
<path d="M364.856 437.558L357.295 426.865C356.824 426.204 357.21 425.607 358.138 425.519L370.103 424.431C371.031 424.342 372.142 424.818 372.614 425.479L380.175 436.172C380.646 436.833 380.259 437.43 379.331 437.519L367.367 438.607C366.452 438.665 365.327 438.219 364.856 437.558Z" fill="#262626"/>
<path d="M375.754 452.967L368.193 442.274C367.722 441.613 368.108 441.016 369.036 440.928L381.001 439.84C381.929 439.751 383.04 440.227 383.512 440.888L391.073 451.581C391.544 452.242 391.157 452.839 390.229 452.928L378.265 454.016C377.35 454.074 376.225 453.628 375.754 452.967Z" fill="#D6D8ED"/>
<path d="M375.754 452.967L368.193 442.274C367.722 441.613 368.108 441.016 369.036 440.928L381.001 439.84C381.929 439.751 383.04 440.227 383.512 440.888L391.073 451.581C391.544 452.242 391.157 452.839 390.229 452.928L378.265 454.016C377.35 454.074 376.225 453.628 375.754 452.967Z" fill="url(#paint11_linear)"/>
<path d="M375.754 452.967L368.193 442.274C367.722 441.613 368.108 441.016 369.036 440.928L381.001 439.84C381.929 439.751 383.04 440.227 383.512 440.888L391.073 451.581C391.544 452.242 391.157 452.839 390.229 452.928L378.265 454.016C377.35 454.074 376.225 453.628 375.754 452.967Z" fill="#262626"/>
<path d="M386.641 468.373L379.08 457.68C378.609 457.019 378.995 456.422 379.924 456.333L391.888 455.245C392.816 455.157 393.928 455.633 394.399 456.294L401.96 466.987C402.431 467.648 402.044 468.245 401.116 468.334L389.152 469.422C388.237 469.48 387.082 469.02 386.641 468.373Z" fill="#D6D8ED"/>
<path d="M386.641 468.373L379.08 457.68C378.609 457.019 378.995 456.422 379.924 456.333L391.888 455.245C392.816 455.157 393.928 455.633 394.399 456.294L401.96 466.987C402.431 467.648 402.044 468.245 401.116 468.334L389.152 469.422C388.237 469.48 387.082 469.02 386.641 468.373Z" fill="url(#paint12_linear)"/>
<path d="M386.641 468.373L379.08 457.68C378.609 457.019 378.995 456.422 379.924 456.333L391.888 455.245C392.816 455.157 393.928 455.633 394.399 456.294L401.96 466.987C402.431 467.648 402.044 468.245 401.116 468.334L389.152 469.422C388.237 469.48 387.082 469.02 386.641 468.373Z" fill="#262626"/>
<path d="M397.477 483.755L389.917 473.062C389.445 472.401 389.832 471.804 390.76 471.716L402.724 470.628C403.653 470.539 404.764 471.015 405.235 471.676L412.796 482.369C413.267 483.03 412.881 483.627 411.953 483.716L399.988 484.804C399.074 484.862 397.918 484.402 397.477 483.755Z" fill="#D6D8ED"/>
<path d="M397.477 483.755L389.917 473.062C389.445 472.401 389.832 471.804 390.76 471.716L402.724 470.628C403.653 470.539 404.764 471.015 405.235 471.676L412.796 482.369C413.267 483.03 412.881 483.627 411.953 483.716L399.988 484.804C399.074 484.862 397.918 484.402 397.477 483.755Z" fill="url(#paint13_linear)"/>
<path d="M397.477 483.755L389.917 473.062C389.445 472.401 389.832 471.804 390.76 471.716L402.724 470.628C403.653 470.539 404.764 471.015 405.235 471.676L412.796 482.369C413.267 483.03 412.881 483.627 411.953 483.716L399.988 484.804C399.074 484.862 397.918 484.402 397.477 483.755Z" fill="#262626"/>
<path d="M232.055 277.59L224.494 266.897C224.023 266.236 224.409 265.639 225.338 265.55L237.302 264.462C238.23 264.374 239.342 264.85 239.813 265.511L247.374 276.204C247.845 276.865 247.458 277.462 246.53 277.551L234.566 278.639C233.652 278.697 232.496 278.237 232.055 277.59Z" fill="#D6D8ED"/>
<path d="M232.055 277.59L224.494 266.897C224.023 266.236 224.409 265.639 225.338 265.55L237.302 264.462C238.23 264.374 239.342 264.85 239.813 265.511L247.374 276.204C247.845 276.865 247.458 277.462 246.53 277.551L234.566 278.639C233.652 278.697 232.496 278.237 232.055 277.59Z" fill="url(#paint14_linear)"/>
<path d="M232.055 277.59L224.494 266.897C224.023 266.236 224.409 265.639 225.338 265.55L237.302 264.462C238.23 264.374 239.342 264.85 239.813 265.511L247.374 276.204C247.845 276.865 247.458 277.462 246.53 277.551L234.566 278.639C233.652 278.697 232.496 278.237 232.055 277.59Z" fill="#262626"/>
<path d="M218.804 286.838L206.119 268.904C205.537 268.081 206.008 267.301 207.162 267.206L218.242 266.19C219.396 266.095 220.826 266.681 221.407 267.504L234.092 285.438C234.674 286.261 234.203 287.04 233.049 287.136L221.969 288.152C220.815 288.247 219.385 287.661 218.804 286.838Z" fill="#D6D8ED"/>
<path d="M218.804 286.838L206.119 268.904C205.537 268.081 206.008 267.301 207.162 267.206L218.242 266.19C219.396 266.095 220.826 266.681 221.407 267.504L234.092 285.438C234.674 286.261 234.203 287.04 233.049 287.136L221.969 288.152C220.815 288.247 219.385 287.661 218.804 286.838Z" fill="url(#paint15_linear)"/>
<path d="M218.804 286.838L206.119 268.904C205.537 268.081 206.008 267.301 207.162 267.206L218.242 266.19C219.396 266.095 220.826 266.681 221.407 267.504L234.092 285.438C234.674 286.261 234.203 287.04 233.049 287.136L221.969 288.152C220.815 288.247 219.385 287.661 218.804 286.838Z" fill="#262626"/>
<path d="M203.546 292.5L188.141 270.687C187.482 269.792 188.025 268.935 189.298 268.821L199.99 267.847C201.263 267.733 202.815 268.375 203.474 269.271L218.879 291.083C219.538 291.979 218.994 292.836 217.721 292.95L207.03 293.924C205.757 294.038 204.174 293.381 203.546 292.5Z" fill="#D6D8ED"/>
<path d="M203.546 292.5L188.141 270.687C187.482 269.792 188.025 268.935 189.298 268.821L199.99 267.847C201.263 267.733 202.815 268.375 203.474 269.271L218.879 291.083C219.538 291.979 218.994 292.836 217.721 292.95L207.03 293.924C205.757 294.038 204.174 293.381 203.546 292.5Z" fill="url(#paint16_linear)"/>
<path d="M203.546 292.5L188.141 270.687C187.482 269.792 188.025 268.935 189.298 268.821L199.99 267.847C201.263 267.733 202.815 268.375 203.474 269.271L218.879 291.083C219.538 291.979 218.994 292.836 217.721 292.95L207.03 293.924C205.757 294.038 204.174 293.381 203.546 292.5Z" fill="#262626"/>
<path d="M179.923 286.321L169.815 272.014C169.281 271.251 169.695 270.592 170.774 270.499L182.274 269.456C183.322 269.348 184.616 269.909 185.134 270.628L195.242 284.935C195.776 285.699 195.362 286.357 194.283 286.45L182.783 287.494C181.735 287.601 180.472 287.055 179.923 286.321Z" fill="#D6D8ED"/>
<path d="M179.923 286.321L169.815 272.014C169.281 271.251 169.695 270.592 170.774 270.499L182.274 269.456C183.322 269.348 184.616 269.909 185.134 270.628L195.242 284.935C195.776 285.699 195.362 286.357 194.283 286.45L182.783 287.494C181.735 287.601 180.472 287.055 179.923 286.321Z" fill="url(#paint17_linear)"/>
<path d="M179.923 286.321L169.815 272.014C169.281 271.251 169.695 270.592 170.774 270.499L182.274 269.456C183.322 269.348 184.616 269.909 185.134 270.628L195.242 284.935C195.776 285.699 195.362 286.357 194.283 286.45L182.783 287.494C181.735 287.601 180.472 287.055 179.923 286.321Z" fill="#262626"/>
<path d="M242.919 292.985L235.358 282.292C234.887 281.631 235.273 281.034 236.201 280.945L248.166 279.857C249.094 279.769 250.205 280.245 250.677 280.906L258.238 291.599C258.709 292.26 258.322 292.857 257.394 292.945L245.43 294.033C244.515 294.092 243.39 293.646 242.919 292.985Z" fill="#D6D8ED"/>
<path d="M242.919 292.985L235.358 282.292C234.887 281.631 235.273 281.034 236.201 280.945L248.166 279.857C249.094 279.769 250.205 280.245 250.677 280.906L258.238 291.599C258.709 292.26 258.322 292.857 257.394 292.945L245.43 294.033C244.515 294.092 243.39 293.646 242.919 292.985Z" fill="url(#paint18_linear)"/>
<path d="M242.919 292.985L235.358 282.292C234.887 281.631 235.273 281.034 236.201 280.945L248.166 279.857C249.094 279.769 250.205 280.245 250.677 280.906L258.238 291.599C258.709 292.26 258.322 292.857 257.394 292.945L245.43 294.033C244.515 294.092 243.39 293.646 242.919 292.985Z" fill="#262626"/>
<path d="M253.81 308.393L246.249 297.7C245.778 297.039 246.164 296.442 247.093 296.354L259.057 295.266C259.985 295.177 261.097 295.653 261.568 296.314L269.129 307.007C269.6 307.668 269.213 308.265 268.285 308.354L256.321 309.442C255.406 309.5 254.281 309.054 253.81 308.393Z" fill="#D6D8ED"/>
<path d="M253.81 308.393L246.249 297.7C245.778 297.039 246.164 296.442 247.093 296.354L259.057 295.266C259.985 295.177 261.097 295.653 261.568 296.314L269.129 307.007C269.6 307.668 269.213 308.265 268.285 308.354L256.321 309.442C255.406 309.5 254.281 309.054 253.81 308.393Z" fill="url(#paint19_linear)"/>
<path d="M253.81 308.393L246.249 297.7C245.778 297.039 246.164 296.442 247.093 296.354L259.057 295.266C259.985 295.177 261.097 295.653 261.568 296.314L269.129 307.007C269.6 307.668 269.213 308.265 268.285 308.354L256.321 309.442C255.406 309.5 254.281 309.054 253.81 308.393Z" fill="#262626"/>
<path d="M264.704 323.802L257.143 313.109C256.672 312.448 257.058 311.851 257.987 311.763L269.951 310.675C270.879 310.586 271.991 311.062 272.462 311.723L280.023 322.416C280.494 323.077 280.107 323.674 279.179 323.763L267.215 324.851C266.3 324.909 265.145 324.449 264.704 323.802Z" fill="#D6D8ED"/>
<path d="M264.704 323.802L257.143 313.109C256.672 312.448 257.058 311.851 257.987 311.763L269.951 310.675C270.879 310.586 271.991 311.062 272.462 311.723L280.023 322.416C280.494 323.077 280.107 323.674 279.179 323.763L267.215 324.851C266.3 324.909 265.145 324.449 264.704 323.802Z" fill="url(#paint20_linear)"/>
<path d="M264.704 323.802L257.143 313.109C256.672 312.448 257.058 311.851 257.987 311.763L269.951 310.675C270.879 310.586 271.991 311.062 272.462 311.723L280.023 322.416C280.494 323.077 280.107 323.674 279.179 323.763L267.215 324.851C266.3 324.909 265.145 324.449 264.704 323.802Z" fill="#262626"/>
<path d="M275.567 339.196L268.006 328.503C267.535 327.842 267.922 327.245 268.85 327.156L280.814 326.068C281.743 325.98 282.854 326.456 283.325 327.117L290.886 337.81C291.357 338.471 290.971 339.068 290.042 339.156L278.078 340.244C277.164 340.303 276.038 339.857 275.567 339.196Z" fill="#D6D8ED"/>
<path d="M275.567 339.196L268.006 328.503C267.535 327.842 267.922 327.245 268.85 327.156L280.814 326.068C281.743 325.98 282.854 326.456 283.325 327.117L290.886 337.81C291.357 338.471 290.971 339.068 290.042 339.156L278.078 340.244C277.164 340.303 276.038 339.857 275.567 339.196Z" fill="url(#paint21_linear)"/>
<path d="M275.567 339.196L268.006 328.503C267.535 327.842 267.922 327.245 268.85 327.156L280.814 326.068C281.743 325.98 282.854 326.456 283.325 327.117L290.886 337.81C291.357 338.471 290.971 339.068 290.042 339.156L278.078 340.244C277.164 340.303 276.038 339.857 275.567 339.196Z" fill="#262626"/>
<path d="M286.462 354.605L278.901 343.911C278.43 343.25 278.816 342.653 279.744 342.565L291.709 341.477C292.637 341.388 293.748 341.864 294.22 342.525L301.78 353.218C302.252 353.879 301.865 354.476 300.937 354.565L288.972 355.653C288.058 355.711 286.916 355.221 286.462 354.605Z" fill="#D6D8ED"/>
<path d="M286.462 354.605L278.901 343.911C278.43 343.25 278.816 342.653 279.744 342.565L291.709 341.477C292.637 341.388 293.748 341.864 294.22 342.525L301.78 353.218C302.252 353.879 301.865 354.476 300.937 354.565L288.972 355.653C288.058 355.711 286.916 355.221 286.462 354.605Z" fill="url(#paint22_linear)"/>
<path d="M286.462 354.605L278.901 343.911C278.43 343.25 278.816 342.653 279.744 342.565L291.709 341.477C292.637 341.388 293.748 341.864 294.22 342.525L301.78 353.218C302.252 353.879 301.865 354.476 300.937 354.565L288.972 355.653C288.058 355.711 286.916 355.221 286.462 354.605Z" fill="#262626"/>
<path d="M297.347 369.969L289.786 359.276C289.315 358.615 289.701 358.018 290.63 357.93L302.594 356.842C303.522 356.753 304.634 357.229 305.105 357.89L312.666 368.583C313.137 369.244 312.75 369.841 311.822 369.93L299.858 371.018C298.93 371.106 297.818 370.63 297.347 369.969Z" fill="#D6D8ED"/>
<path d="M297.347 369.969L289.786 359.276C289.315 358.615 289.701 358.018 290.63 357.93L302.594 356.842C303.522 356.753 304.634 357.229 305.105 357.89L312.666 368.583C313.137 369.244 312.75 369.841 311.822 369.93L299.858 371.018C298.93 371.106 297.818 370.63 297.347 369.969Z" fill="url(#paint23_linear)"/>
<path d="M297.347 369.969L289.786 359.276C289.315 358.615 289.701 358.018 290.63 357.93L302.594 356.842C303.522 356.753 304.634 357.229 305.105 357.89L312.666 368.583C313.137 369.244 312.75 369.841 311.822 369.93L299.858 371.018C298.93 371.106 297.818 370.63 297.347 369.969Z" fill="#262626"/>
<path d="M308.231 385.377L300.67 374.684C300.199 374.023 300.585 373.426 301.513 373.338L313.478 372.25C314.406 372.161 315.517 372.637 315.989 373.298L323.549 383.991C324.021 384.652 323.634 385.249 322.706 385.338L310.741 386.426C309.813 386.514 308.702 386.038 308.231 385.377Z" fill="#D6D8ED"/>
<path d="M308.231 385.377L300.67 374.684C300.199 374.023 300.585 373.426 301.513 373.338L313.478 372.25C314.406 372.161 315.517 372.637 315.989 373.298L323.549 383.991C324.021 384.652 323.634 385.249 322.706 385.338L310.741 386.426C309.813 386.514 308.702 386.038 308.231 385.377Z" fill="url(#paint24_linear)"/>
<path d="M308.231 385.377L300.67 374.684C300.199 374.023 300.585 373.426 301.513 373.338L313.478 372.25C314.406 372.161 315.517 372.637 315.989 373.298L323.549 383.991C324.021 384.652 323.634 385.249 322.706 385.338L310.741 386.426C309.813 386.514 308.702 386.038 308.231 385.377Z" fill="#262626"/>
<path d="M319.124 400.784L311.533 390.076C311.062 389.415 311.448 388.818 312.377 388.73L324.341 387.642C325.269 387.553 326.381 388.029 326.852 388.69L334.413 399.383C334.884 400.044 334.497 400.641 333.569 400.73L321.605 401.818C320.707 401.92 319.565 401.43 319.124 400.784Z" fill="#D6D8ED"/>
<path d="M319.124 400.784L311.533 390.076C311.062 389.415 311.448 388.818 312.377 388.73L324.341 387.642C325.269 387.553 326.381 388.029 326.852 388.69L334.413 399.383C334.884 400.044 334.497 400.641 333.569 400.73L321.605 401.818C320.707 401.92 319.565 401.43 319.124 400.784Z" fill="url(#paint25_linear)"/>
<path d="M319.124 400.784L311.533 390.076C311.062 389.415 311.448 388.818 312.377 388.73L324.341 387.642C325.269 387.553 326.381 388.029 326.852 388.69L334.413 399.383C334.884 400.044 334.497 400.641 333.569 400.73L321.605 401.818C320.707 401.92 319.565 401.43 319.124 400.784Z" fill="#262626"/>
<path d="M329.988 416.178L322.428 405.485C321.956 404.824 322.343 404.227 323.271 404.139L335.236 403.051C336.164 402.962 337.275 403.438 337.747 404.099L345.307 414.792C345.779 415.453 345.392 416.05 344.464 416.139L332.499 417.227C331.571 417.315 330.46 416.839 329.988 416.178Z" fill="#D6D8ED"/>
<path d="M329.988 416.178L322.428 405.485C321.956 404.824 322.343 404.227 323.271 404.139L335.236 403.051C336.164 402.962 337.275 403.438 337.747 404.099L345.307 414.792C345.779 415.453 345.392 416.05 344.464 416.139L332.499 417.227C331.571 417.315 330.46 416.839 329.988 416.178Z" fill="url(#paint26_linear)"/>
<path d="M329.988 416.178L322.428 405.485C321.956 404.824 322.343 404.227 323.271 404.139L335.236 403.051C336.164 402.962 337.275 403.438 337.747 404.099L345.307 414.792C345.779 415.453 345.392 416.05 344.464 416.139L332.499 417.227C331.571 417.315 330.46 416.839 329.988 416.178Z" fill="#262626"/>
<path d="M340.883 431.586L333.322 420.893C332.851 420.232 333.238 419.635 334.166 419.547L346.13 418.459C347.059 418.37 348.17 418.846 348.641 419.507L356.202 430.2C356.673 430.861 356.287 431.458 355.358 431.547L343.394 432.635C342.466 432.723 341.324 432.233 340.883 431.586Z" fill="#D6D8ED"/>
<path d="M340.883 431.586L333.322 420.893C332.851 420.232 333.238 419.635 334.166 419.547L346.13 418.459C347.059 418.37 348.17 418.846 348.641 419.507L356.202 430.2C356.673 430.861 356.287 431.458 355.358 431.547L343.394 432.635C342.466 432.723 341.324 432.233 340.883 431.586Z" fill="url(#paint27_linear)"/>
<path d="M340.883 431.586L333.322 420.893C332.851 420.232 333.238 419.635 334.166 419.547L346.13 418.459C347.059 418.37 348.17 418.846 348.641 419.507L356.202 430.2C356.673 430.861 356.287 431.458 355.358 431.547L343.394 432.635C342.466 432.723 341.324 432.233 340.883 431.586Z" fill="#262626"/>
<path d="M351.744 446.982L344.183 436.289C343.712 435.628 344.098 435.031 345.027 434.942L356.991 433.854C357.919 433.766 359.031 434.242 359.502 434.903L367.063 445.596C367.534 446.257 367.147 446.854 366.219 446.942L354.255 448.03C353.326 448.119 352.215 447.643 351.744 446.982Z" fill="#D6D8ED"/>
<path d="M351.744 446.982L344.183 436.289C343.712 435.628 344.098 435.031 345.027 434.942L356.991 433.854C357.919 433.766 359.031 434.242 359.502 434.903L367.063 445.596C367.534 446.257 367.147 446.854 366.219 446.942L354.255 448.03C353.326 448.119 352.215 447.643 351.744 446.982Z" fill="url(#paint28_linear)"/>
<path d="M351.744 446.982L344.183 436.289C343.712 435.628 344.098 435.031 345.027 434.942L356.991 433.854C357.919 433.766 359.031 434.242 359.502 434.903L367.063 445.596C367.534 446.257 367.147 446.854 366.219 446.942L354.255 448.03C353.326 448.119 352.215 447.643 351.744 446.982Z" fill="#262626"/>
<path d="M362.638 462.388L355.077 451.695C354.606 451.034 354.992 450.437 355.921 450.348L367.885 449.26C368.813 449.172 369.925 449.648 370.396 450.309L377.957 461.002C378.428 461.663 378.042 462.26 377.113 462.348L365.149 463.436C364.235 463.495 363.109 463.049 362.638 462.388Z" fill="#D6D8ED"/>
<path d="M362.638 462.388L355.077 451.695C354.606 451.034 354.992 450.437 355.921 450.348L367.885 449.26C368.813 449.172 369.925 449.648 370.396 450.309L377.957 461.002C378.428 461.663 378.042 462.26 377.113 462.348L365.149 463.436C364.235 463.495 363.109 463.049 362.638 462.388Z" fill="url(#paint29_linear)"/>
<path d="M362.638 462.388L355.077 451.695C354.606 451.034 354.992 450.437 355.921 450.348L367.885 449.26C368.813 449.172 369.925 449.648 370.396 450.309L377.957 461.002C378.428 461.663 378.042 462.26 377.113 462.348L365.149 463.436C364.235 463.495 363.109 463.049 362.638 462.388Z" fill="#262626"/>
<path d="M230.181 302.877L222.621 292.184C222.149 291.523 222.536 290.926 223.464 290.837L235.429 289.749C236.357 289.661 237.468 290.137 237.94 290.798L245.5 301.491C245.972 302.152 245.585 302.749 244.657 302.837L232.692 303.925C231.778 303.984 230.622 303.524 230.181 302.877Z" fill="#D6D8ED"/>
<path d="M230.181 302.877L222.621 292.184C222.149 291.523 222.536 290.926 223.464 290.837L235.429 289.749C236.357 289.661 237.468 290.137 237.94 290.798L245.5 301.491C245.972 302.152 245.585 302.749 244.657 302.837L232.692 303.925C231.778 303.984 230.622 303.524 230.181 302.877Z" fill="url(#paint30_linear)"/>
<path d="M230.181 302.877L222.621 292.184C222.149 291.523 222.536 290.926 223.464 290.837L235.429 289.749C236.357 289.661 237.468 290.137 237.94 290.798L245.5 301.491C245.972 302.152 245.585 302.749 244.657 302.837L232.692 303.925C231.778 303.984 230.622 303.524 230.181 302.877Z" fill="#262626"/>
<path d="M241.042 318.27L233.481 307.577C233.01 306.916 233.397 306.319 234.325 306.23L246.289 305.142C247.218 305.054 248.329 305.53 248.8 306.19L256.361 316.884C256.832 317.544 256.446 318.142 255.517 318.23L243.553 319.318C242.639 319.376 241.514 318.931 241.042 318.27Z" fill="#D6D8ED"/>
<path d="M241.042 318.27L233.481 307.577C233.01 306.916 233.397 306.319 234.325 306.23L246.289 305.142C247.218 305.054 248.329 305.53 248.8 306.19L256.361 316.884C256.832 317.544 256.446 318.142 255.517 318.23L243.553 319.318C242.639 319.376 241.514 318.931 241.042 318.27Z" fill="url(#paint31_linear)"/>
<path d="M241.042 318.27L233.481 307.577C233.01 306.916 233.397 306.319 234.325 306.23L246.289 305.142C247.218 305.054 248.329 305.53 248.8 306.19L256.361 316.884C256.832 317.544 256.446 318.142 255.517 318.23L243.553 319.318C242.639 319.376 241.514 318.931 241.042 318.27Z" fill="#262626"/>
<path d="M251.941 333.678L244.38 322.985C243.909 322.324 244.295 321.727 245.223 321.638L257.188 320.55C258.116 320.462 259.227 320.938 259.699 321.599L267.259 332.292C267.731 332.953 267.344 333.55 266.416 333.638L254.452 334.727C253.537 334.785 252.412 334.339 251.941 333.678Z" fill="#D6D8ED"/>
<path d="M251.941 333.678L244.38 322.985C243.909 322.324 244.295 321.727 245.223 321.638L257.188 320.55C258.116 320.462 259.227 320.938 259.699 321.599L267.259 332.292C267.731 332.953 267.344 333.55 266.416 333.638L254.452 334.727C253.537 334.785 252.412 334.339 251.941 333.678Z" fill="url(#paint32_linear)"/>
<path d="M251.941 333.678L244.38 322.985C243.909 322.324 244.295 321.727 245.223 321.638L257.188 320.55C258.116 320.462 259.227 320.938 259.699 321.599L267.259 332.292C267.731 332.953 267.344 333.55 266.416 333.638L254.452 334.727C253.537 334.785 252.412 334.339 251.941 333.678Z" fill="#262626"/>
<path d="M262.83 349.088L255.253 338.35C254.782 337.689 255.168 337.092 256.096 337.003L268.061 335.915C268.989 335.827 270.1 336.303 270.572 336.964L278.132 347.657C278.604 348.318 278.217 348.915 277.289 349.003L265.325 350.091C264.396 350.18 263.271 349.734 262.83 349.088Z" fill="#D6D8ED"/>
<path d="M262.83 349.088L255.253 338.35C254.782 337.689 255.168 337.092 256.096 337.003L268.061 335.915C268.989 335.827 270.1 336.303 270.572 336.964L278.132 347.657C278.604 348.318 278.217 348.915 277.289 349.003L265.325 350.091C264.396 350.18 263.271 349.734 262.83 349.088Z" fill="url(#paint33_linear)"/>
<path d="M262.83 349.088L255.253 338.35C254.782 337.689 255.168 337.092 256.096 337.003L268.061 335.915C268.989 335.827 270.1 336.303 270.572 336.964L278.132 347.657C278.604 348.318 278.217 348.915 277.289 349.003L265.325 350.091C264.396 350.18 263.271 349.734 262.83 349.088Z" fill="#262626"/>
<path d="M273.691 364.481L266.13 353.788C265.659 353.127 266.046 352.53 266.974 352.441L278.938 351.353C279.867 351.265 280.978 351.741 281.449 352.402L289.01 363.095C289.481 363.756 289.095 364.353 288.166 364.441L276.202 365.53C275.288 365.588 274.162 365.142 273.691 364.481Z" fill="#D6D8ED"/>
<path d="M273.691 364.481L266.13 353.788C265.659 353.127 266.046 352.53 266.974 352.441L278.938 351.353C279.867 351.265 280.978 351.741 281.449 352.402L289.01 363.095C289.481 363.756 289.095 364.353 288.166 364.441L276.202 365.53C275.288 365.588 274.162 365.142 273.691 364.481Z" fill="url(#paint34_linear)"/>
<path d="M273.691 364.481L266.13 353.788C265.659 353.127 266.046 352.53 266.974 352.441L278.938 351.353C279.867 351.265 280.978 351.741 281.449 352.402L289.01 363.095C289.481 363.756 289.095 364.353 288.166 364.441L276.202 365.53C275.288 365.588 274.162 365.142 273.691 364.481Z" fill="#262626"/>
<path d="M284.589 379.891L277.028 369.198C276.557 368.537 276.944 367.94 277.872 367.851L289.836 366.763C290.765 366.675 291.876 367.151 292.347 367.812L299.908 378.505C300.379 379.166 299.993 379.763 299.064 379.851L287.1 380.939C286.186 380.998 285.044 380.507 284.589 379.891Z" fill="#D6D8ED"/>
<path d="M284.589 379.891L277.028 369.198C276.557 368.537 276.944 367.94 277.872 367.851L289.836 366.763C290.765 366.675 291.876 367.151 292.347 367.812L299.908 378.505C300.379 379.166 299.993 379.763 299.064 379.851L287.1 380.939C286.186 380.998 285.044 380.507 284.589 379.891Z" fill="url(#paint35_linear)"/>
<path d="M284.589 379.891L277.028 369.198C276.557 368.537 276.944 367.94 277.872 367.851L289.836 366.763C290.765 366.675 291.876 367.151 292.347 367.812L299.908 378.505C300.379 379.166 299.993 379.763 299.064 379.851L287.1 380.939C286.186 380.998 285.044 380.507 284.589 379.891Z" fill="#262626"/>
<path d="M295.451 395.283L287.905 384.56C287.433 383.899 287.82 383.302 288.748 383.213L300.713 382.125C301.641 382.037 302.752 382.513 303.224 383.174L310.784 393.867C311.256 394.528 310.869 395.125 309.941 395.213L297.976 396.301C297.048 396.39 295.937 395.914 295.451 395.283Z" fill="#D6D8ED"/>
<path d="M295.451 395.283L287.905 384.56C287.433 383.899 287.82 383.302 288.748 383.213L300.713 382.125C301.641 382.037 302.752 382.513 303.224 383.174L310.784 393.867C311.256 394.528 310.869 395.125 309.941 395.213L297.976 396.301C297.048 396.39 295.937 395.914 295.451 395.283Z" fill="url(#paint36_linear)"/>
<path d="M295.451 395.283L287.905 384.56C287.433 383.899 287.82 383.302 288.748 383.213L300.713 382.125C301.641 382.037 302.752 382.513 303.224 383.174L310.784 393.867C311.256 394.528 310.869 395.125 309.941 395.213L297.976 396.301C297.048 396.39 295.937 395.914 295.451 395.283Z" fill="#262626"/>
<path d="M306.356 410.661L298.795 399.968C298.324 399.307 298.711 398.71 299.639 398.621L311.603 397.533C312.532 397.445 313.643 397.921 314.114 398.582L321.675 409.275C322.146 409.936 321.76 410.533 320.831 410.621L308.867 411.71C307.939 411.798 306.827 411.322 306.356 410.661Z" fill="#D6D8ED"/>
<path d="M306.356 410.661L298.795 399.968C298.324 399.307 298.711 398.71 299.639 398.621L311.603 397.533C312.532 397.445 313.643 397.921 314.114 398.582L321.675 409.275C322.146 409.936 321.76 410.533 320.831 410.621L308.867 411.71C307.939 411.798 306.827 411.322 306.356 410.661Z" fill="url(#paint37_linear)"/>
<path d="M306.356 410.661L298.795 399.968C298.324 399.307 298.711 398.71 299.639 398.621L311.603 397.533C312.532 397.445 313.643 397.921 314.114 398.582L321.675 409.275C322.146 409.936 321.76 410.533 320.831 410.621L308.867 411.71C307.939 411.798 306.827 411.322 306.356 410.661Z" fill="#262626"/>
<path d="M317.251 426.07L309.69 415.377C309.219 414.716 309.605 414.119 310.534 414.03L322.498 412.942C323.426 412.854 324.537 413.33 325.009 413.991L332.569 424.684C333.041 425.345 332.654 425.942 331.726 426.03L319.762 427.118C318.803 427.193 317.692 426.717 317.251 426.07Z" fill="#D6D8ED"/>
<path d="M317.251 426.07L309.69 415.377C309.219 414.716 309.605 414.119 310.534 414.03L322.498 412.942C323.426 412.854 324.537 413.33 325.009 413.991L332.569 424.684C333.041 425.345 332.654 425.942 331.726 426.03L319.762 427.118C318.803 427.193 317.692 426.717 317.251 426.07Z" fill="url(#paint38_linear)"/>
<path d="M317.251 426.07L309.69 415.377C309.219 414.716 309.605 414.119 310.534 414.03L322.498 412.942C323.426 412.854 324.537 413.33 325.009 413.991L332.569 424.684C333.041 425.345 332.654 425.942 331.726 426.03L319.762 427.118C318.803 427.193 317.692 426.717 317.251 426.07Z" fill="#262626"/>
<path d="M328.112 441.464L320.552 430.771C320.08 430.11 320.467 429.513 321.395 429.424L333.36 428.336C334.288 428.248 335.399 428.724 335.871 429.385L343.431 440.078C343.903 440.739 343.516 441.336 342.588 441.424L330.623 442.512C329.695 442.601 328.584 442.125 328.112 441.464Z" fill="#D6D8ED"/>
<path d="M328.112 441.464L320.552 430.771C320.08 430.11 320.467 429.513 321.395 429.424L333.36 428.336C334.288 428.248 335.399 428.724 335.871 429.385L343.431 440.078C343.903 440.739 343.516 441.336 342.588 441.424L330.623 442.512C329.695 442.601 328.584 442.125 328.112 441.464Z" fill="url(#paint39_linear)"/>
<path d="M328.112 441.464L320.552 430.771C320.08 430.11 320.467 429.513 321.395 429.424L333.36 428.336C334.288 428.248 335.399 428.724 335.871 429.385L343.431 440.078C343.903 440.739 343.516 441.336 342.588 441.424L330.623 442.512C329.695 442.601 328.584 442.125 328.112 441.464Z" fill="#262626"/>
<path d="M339.007 456.872L331.446 446.179C330.975 445.518 331.362 444.921 332.29 444.832L344.254 443.744C345.183 443.656 346.294 444.132 346.765 444.793L354.326 455.486C354.797 456.147 354.411 456.744 353.482 456.832L341.518 457.921C340.59 458.009 339.448 457.519 339.007 456.872Z" fill="#D6D8ED"/>
<path d="M339.007 456.872L331.446 446.179C330.975 445.518 331.362 444.921 332.29 444.832L344.254 443.744C345.183 443.656 346.294 444.132 346.765 444.793L354.326 455.486C354.797 456.147 354.411 456.744 353.482 456.832L341.518 457.921C340.59 458.009 339.448 457.519 339.007 456.872Z" fill="url(#paint40_linear)"/>
<path d="M339.007 456.872L331.446 446.179C330.975 445.518 331.362 444.921 332.29 444.832L344.254 443.744C345.183 443.656 346.294 444.132 346.765 444.793L354.326 455.486C354.797 456.147 354.411 456.744 353.482 456.832L341.518 457.921C340.59 458.009 339.448 457.519 339.007 456.872Z" fill="#262626"/>
<path d="M349.874 472.267L342.313 461.574C341.842 460.913 342.228 460.316 343.157 460.227L355.121 459.139C356.049 459.051 357.16 459.527 357.632 460.188L365.193 470.881C365.664 471.542 365.277 472.139 364.349 472.227L352.385 473.315C351.456 473.404 350.345 472.928 349.874 472.267Z" fill="#D6D8ED"/>
<path d="M349.874 472.267L342.313 461.574C341.842 460.913 342.228 460.316 343.157 460.227L355.121 459.139C356.049 459.051 357.16 459.527 357.632 460.188L365.193 470.881C365.664 471.542 365.277 472.139 364.349 472.227L352.385 473.315C351.456 473.404 350.345 472.928 349.874 472.267Z" fill="url(#paint41_linear)"/>
<path d="M349.874 472.267L342.313 461.574C341.842 460.913 342.228 460.316 343.157 460.227L355.121 459.139C356.049 459.051 357.16 459.527 357.632 460.188L365.193 470.881C365.664 471.542 365.277 472.139 364.349 472.227L352.385 473.315C351.456 473.404 350.345 472.928 349.874 472.267Z" fill="#262626"/>
<path d="M214.605 308.097L207.044 297.404C206.573 296.743 206.959 296.146 207.887 296.057L219.852 294.969C220.78 294.88 221.891 295.357 222.363 296.017L229.924 306.711C230.395 307.371 230.008 307.969 229.08 308.057L217.116 309.145C216.187 309.234 215.076 308.758 214.605 308.097Z" fill="#D6D8ED"/>
<path d="M214.605 308.097L207.044 297.404C206.573 296.743 206.959 296.146 207.887 296.057L219.852 294.969C220.78 294.88 221.891 295.357 222.363 296.017L229.924 306.711C230.395 307.371 230.008 307.969 229.08 308.057L217.116 309.145C216.187 309.234 215.076 308.758 214.605 308.097Z" fill="url(#paint42_linear)"/>
<path d="M214.605 308.097L207.044 297.404C206.573 296.743 206.959 296.146 207.887 296.057L219.852 294.969C220.78 294.88 221.891 295.357 222.363 296.017L229.924 306.711C230.395 307.371 230.008 307.969 229.08 308.057L217.116 309.145C216.187 309.234 215.076 308.758 214.605 308.097Z" fill="#262626"/>
<path d="M225.496 323.504L217.935 312.811C217.464 312.15 217.85 311.553 218.779 311.464L230.743 310.376C231.671 310.288 232.783 310.764 233.254 311.425L240.815 322.118C241.286 322.779 240.899 323.376 239.971 323.464L227.976 324.539C227.078 324.641 225.937 324.151 225.496 323.504Z" fill="#D6D8ED"/>
<path d="M225.496 323.504L217.935 312.811C217.464 312.15 217.85 311.553 218.779 311.464L230.743 310.376C231.671 310.288 232.783 310.764 233.254 311.425L240.815 322.118C241.286 322.779 240.899 323.376 239.971 323.464L227.976 324.539C227.078 324.641 225.937 324.151 225.496 323.504Z" fill="url(#paint43_linear)"/>
<path d="M225.496 323.504L217.935 312.811C217.464 312.15 217.85 311.553 218.779 311.464L230.743 310.376C231.671 310.288 232.783 310.764 233.254 311.425L240.815 322.118C241.286 322.779 240.899 323.376 239.971 323.464L227.976 324.539C227.078 324.641 225.937 324.151 225.496 323.504Z" fill="#262626"/>
<path d="M236.359 338.899L228.798 328.206C228.327 327.545 228.714 326.948 229.642 326.86L241.606 325.772C242.535 325.683 243.646 326.159 244.117 326.82L251.678 337.513C252.149 338.174 251.763 338.771 250.834 338.86L238.87 339.948C237.942 340.036 236.83 339.56 236.359 338.899Z" fill="#D6D8ED"/>
<path d="M236.359 338.899L228.798 328.206C228.327 327.545 228.714 326.948 229.642 326.86L241.606 325.772C242.535 325.683 243.646 326.159 244.117 326.82L251.678 337.513C252.149 338.174 251.763 338.771 250.834 338.86L238.87 339.948C237.942 340.036 236.83 339.56 236.359 338.899Z" fill="url(#paint44_linear)"/>
<path d="M236.359 338.899L228.798 328.206C228.327 327.545 228.714 326.948 229.642 326.86L241.606 325.772C242.535 325.683 243.646 326.159 244.117 326.82L251.678 337.513C252.149 338.174 251.763 338.771 250.834 338.86L238.87 339.948C237.942 340.036 236.83 339.56 236.359 338.899Z" fill="#262626"/>
<path d="M247.261 354.308L239.7 343.615C239.229 342.954 239.615 342.357 240.544 342.269L252.508 341.181C253.436 341.092 254.548 341.568 255.019 342.229L262.58 352.922C263.051 353.583 262.665 354.18 261.736 354.269L249.772 355.357C248.844 355.445 247.702 354.955 247.261 354.308Z" fill="#D6D8ED"/>
<path d="M247.261 354.308L239.7 343.615C239.229 342.954 239.615 342.357 240.544 342.269L252.508 341.181C253.436 341.092 254.548 341.568 255.019 342.229L262.58 352.922C263.051 353.583 262.665 354.18 261.736 354.269L249.772 355.357C248.844 355.445 247.702 354.955 247.261 354.308Z" fill="url(#paint45_linear)"/>
<path d="M247.261 354.308L239.7 343.615C239.229 342.954 239.615 342.357 240.544 342.269L252.508 341.181C253.436 341.092 254.548 341.568 255.019 342.229L262.58 352.922C263.051 353.583 262.665 354.18 261.736 354.269L249.772 355.357C248.844 355.445 247.702 354.955 247.261 354.308Z" fill="#262626"/>
<path d="M258.117 369.702L250.557 359.008C250.085 358.348 250.472 357.75 251.4 357.662L263.365 356.574C264.293 356.485 265.404 356.961 265.876 357.622L273.436 368.315C273.908 368.976 273.521 369.573 272.593 369.662L260.628 370.75C259.7 370.838 258.589 370.362 258.117 369.702Z" fill="#D6D8ED"/>
<path d="M258.117 369.702L250.557 359.008C250.085 358.348 250.472 357.75 251.4 357.662L263.365 356.574C264.293 356.485 265.404 356.961 265.876 357.622L273.436 368.315C273.908 368.976 273.521 369.573 272.593 369.662L260.628 370.75C259.7 370.838 258.589 370.362 258.117 369.702Z" fill="url(#paint46_linear)"/>
<path d="M258.117 369.702L250.557 359.008C250.085 358.348 250.472 357.75 251.4 357.662L263.365 356.574C264.293 356.485 265.404 356.961 265.876 357.622L273.436 368.315C273.908 368.976 273.521 369.573 272.593 369.662L260.628 370.75C259.7 370.838 258.589 370.362 258.117 369.702Z" fill="#262626"/>
<path d="M269.012 385.111L261.451 374.418C260.98 373.757 261.366 373.16 262.295 373.072L274.259 371.984C275.187 371.895 276.299 372.371 276.77 373.032L284.331 383.725C284.802 384.386 284.415 384.983 283.487 385.072L271.523 386.16C270.595 386.248 269.483 385.772 269.012 385.111Z" fill="#D6D8ED"/>
<path d="M269.012 385.111L261.451 374.418C260.98 373.757 261.366 373.16 262.295 373.072L274.259 371.984C275.187 371.895 276.299 372.371 276.77 373.032L284.331 383.725C284.802 384.386 284.415 384.983 283.487 385.072L271.523 386.16C270.595 386.248 269.483 385.772 269.012 385.111Z" fill="url(#paint47_linear)"/>
<path d="M269.012 385.111L261.451 374.418C260.98 373.757 261.366 373.16 262.295 373.072L274.259 371.984C275.187 371.895 276.299 372.371 276.77 373.032L284.331 383.725C284.802 384.386 284.415 384.983 283.487 385.072L271.523 386.16C270.595 386.248 269.483 385.772 269.012 385.111Z" fill="#262626"/>
<path d="M279.906 400.519L272.345 389.825C271.874 389.165 272.26 388.567 273.189 388.479L285.153 387.391C286.081 387.302 287.193 387.778 287.664 388.439L295.225 399.132C295.696 399.793 295.309 400.39 294.381 400.479L282.417 401.567C281.503 401.625 280.347 401.165 279.906 400.519Z" fill="#D6D8ED"/>
<path d="M279.906 400.519L272.345 389.825C271.874 389.165 272.26 388.567 273.189 388.479L285.153 387.391C286.081 387.302 287.193 387.778 287.664 388.439L295.225 399.132C295.696 399.793 295.309 400.39 294.381 400.479L282.417 401.567C281.503 401.625 280.347 401.165 279.906 400.519Z" fill="url(#paint48_linear)"/>
<path d="M279.906 400.519L272.345 389.825C271.874 389.165 272.26 388.567 273.189 388.479L285.153 387.391C286.081 387.302 287.193 387.778 287.664 388.439L295.225 399.132C295.696 399.793 295.309 400.39 294.381 400.479L282.417 401.567C281.503 401.625 280.347 401.165 279.906 400.519Z" fill="#262626"/>
<path d="M290.77 415.914L283.209 405.221C282.738 404.56 283.124 403.963 284.053 403.874L296.017 402.786C296.945 402.697 298.057 403.174 298.528 403.834L306.089 414.528C306.56 415.189 306.173 415.786 305.245 415.874L293.281 416.962C292.366 417.02 291.241 416.575 290.77 415.914Z" fill="#D6D8ED"/>
<path d="M290.77 415.914L283.209 405.221C282.738 404.56 283.124 403.963 284.053 403.874L296.017 402.786C296.945 402.697 298.057 403.174 298.528 403.834L306.089 414.528C306.56 415.189 306.173 415.786 305.245 415.874L293.281 416.962C292.366 417.02 291.241 416.575 290.77 415.914Z" fill="url(#paint49_linear)"/>
<path d="M290.77 415.914L283.209 405.221C282.738 404.56 283.124 403.963 284.053 403.874L296.017 402.786C296.945 402.697 298.057 403.174 298.528 403.834L306.089 414.528C306.56 415.189 306.173 415.786 305.245 415.874L293.281 416.962C292.366 417.02 291.241 416.575 290.77 415.914Z" fill="#262626"/>
<path d="M301.657 431.321L294.097 420.628C293.625 419.967 294.012 419.37 294.94 419.281L306.905 418.193C307.833 418.105 308.944 418.581 309.416 419.242L316.976 429.935C317.448 430.595 317.061 431.193 316.133 431.281L304.168 432.369C303.254 432.427 302.098 431.968 301.657 431.321Z" fill="#D6D8ED"/>
<path d="M301.657 431.321L294.097 420.628C293.625 419.967 294.012 419.37 294.94 419.281L306.905 418.193C307.833 418.105 308.944 418.581 309.416 419.242L316.976 429.935C317.448 430.595 317.061 431.193 316.133 431.281L304.168 432.369C303.254 432.427 302.098 431.968 301.657 431.321Z" fill="url(#paint50_linear)"/>
<path d="M301.657 431.321L294.097 420.628C293.625 419.967 294.012 419.37 294.94 419.281L306.905 418.193C307.833 418.105 308.944 418.581 309.416 419.242L316.976 429.935C317.448 430.595 317.061 431.193 316.133 431.281L304.168 432.369C303.254 432.427 302.098 431.968 301.657 431.321Z" fill="#262626"/>
<path d="M312.524 446.716L304.963 436.023C304.492 435.362 304.879 434.765 305.807 434.676L317.771 433.588C318.7 433.5 319.811 433.976 320.282 434.637L327.843 445.33C328.314 445.991 327.928 446.588 326.999 446.676L315.035 447.764C314.121 447.823 312.995 447.377 312.524 446.716Z" fill="#D6D8ED"/>
<path d="M312.524 446.716L304.963 436.023C304.492 435.362 304.879 434.765 305.807 434.676L317.771 433.588C318.7 433.5 319.811 433.976 320.282 434.637L327.843 445.33C328.314 445.991 327.928 446.588 326.999 446.676L315.035 447.764C314.121 447.823 312.995 447.377 312.524 446.716Z" fill="url(#paint51_linear)"/>
<path d="M312.524 446.716L304.963 436.023C304.492 435.362 304.879 434.765 305.807 434.676L317.771 433.588C318.7 433.5 319.811 433.976 320.282 434.637L327.843 445.33C328.314 445.991 327.928 446.588 326.999 446.676L315.035 447.764C314.121 447.823 312.995 447.377 312.524 446.716Z" fill="#262626"/>
<path d="M323.419 462.123L315.858 451.43C315.387 450.769 315.773 450.172 316.701 450.084L328.666 448.995C329.594 448.907 330.705 449.383 331.177 450.044L338.738 460.737C339.209 461.398 338.822 461.995 337.894 462.084L325.93 463.172C325.015 463.23 323.89 462.784 323.419 462.123Z" fill="#D6D8ED"/>
<path d="M323.419 462.123L315.858 451.43C315.387 450.769 315.773 450.172 316.701 450.084L328.666 448.995C329.594 448.907 330.705 449.383 331.177 450.044L338.738 460.737C339.209 461.398 338.822 461.995 337.894 462.084L325.93 463.172C325.015 463.23 323.89 462.784 323.419 462.123Z" fill="url(#paint52_linear)"/>
<path d="M323.419 462.123L315.858 451.43C315.387 450.769 315.773 450.172 316.701 450.084L328.666 448.995C329.594 448.907 330.705 449.383 331.177 450.044L338.738 460.737C339.209 461.398 338.822 461.995 337.894 462.084L325.93 463.172C325.015 463.23 323.89 462.784 323.419 462.123Z" fill="#262626"/>
<path d="M334.317 477.533L326.756 466.84C326.285 466.179 326.671 465.582 327.599 465.493L339.564 464.405C340.492 464.316 341.603 464.792 342.075 465.453L349.635 476.146C350.107 476.807 349.72 477.405 348.792 477.493L336.828 478.581C335.913 478.639 334.758 478.18 334.317 477.533Z" fill="#D6D8ED"/>
<path d="M334.317 477.533L326.756 466.84C326.285 466.179 326.671 465.582 327.599 465.493L339.564 464.405C340.492 464.316 341.603 464.792 342.075 465.453L349.635 476.146C350.107 476.807 349.72 477.405 348.792 477.493L336.828 478.581C335.913 478.639 334.758 478.18 334.317 477.533Z" fill="url(#paint53_linear)"/>
<path d="M334.317 477.533L326.756 466.84C326.285 466.179 326.671 465.582 327.599 465.493L339.564 464.405C340.492 464.316 341.603 464.792 342.075 465.453L349.635 476.146C350.107 476.807 349.72 477.405 348.792 477.493L336.828 478.581C335.913 478.639 334.758 478.18 334.317 477.533Z" fill="#262626"/>
<path d="M375.628 485.671L368.177 475.139C367.689 474.434 366.592 473.928 365.709 474L353.519 475.095C352.666 475.181 352.371 475.82 352.872 476.495L354.019 478.096C354.46 478.743 354.193 479.321 353.415 479.405L338.291 480.77C337.437 480.856 337.142 481.496 337.644 482.171L342.233 488.648C342.721 489.353 343.818 489.86 344.672 489.774L362.775 488.122L363.704 488.033L374.979 486.996C375.82 487.016 376.116 486.376 375.628 485.671Z" fill="#D6D8ED"/>
<path d="M375.628 485.671L368.177 475.139C367.689 474.434 366.592 473.928 365.709 474L353.519 475.095C352.666 475.181 352.371 475.82 352.872 476.495L354.019 478.096C354.46 478.743 354.193 479.321 353.415 479.405L338.291 480.77C337.437 480.856 337.142 481.496 337.644 482.171L342.233 488.648C342.721 489.353 343.818 489.86 344.672 489.774L362.775 488.122L363.704 488.033L374.979 486.996C375.82 487.016 376.116 486.376 375.628 485.671Z" fill="url(#paint54_linear)"/>
<path d="M375.628 485.671L368.177 475.139C367.689 474.434 366.592 473.928 365.709 474L353.519 475.095C352.666 475.181 352.371 475.82 352.872 476.495L354.019 478.096C354.46 478.743 354.193 479.321 353.415 479.405L338.291 480.77C337.437 480.856 337.142 481.496 337.644 482.171L342.233 488.648C342.721 489.353 343.818 489.86 344.672 489.774L362.775 488.122L363.704 488.033L374.979 486.996C375.82 487.016 376.116 486.376 375.628 485.671Z" fill="#262626"/>
<path d="M191.161 302.185L183.6 291.492C183.129 290.831 183.515 290.234 184.444 290.145L196.408 289.057C197.336 288.969 198.448 289.445 198.919 290.106L206.48 300.799C206.951 301.46 206.564 302.057 205.636 302.145L193.672 303.233C192.743 303.322 191.602 302.832 191.161 302.185Z" fill="#D6D8ED"/>
<path d="M191.161 302.185L183.6 291.492C183.129 290.831 183.515 290.234 184.444 290.145L196.408 289.057C197.336 288.969 198.448 289.445 198.919 290.106L206.48 300.799C206.951 301.46 206.564 302.057 205.636 302.145L193.672 303.233C192.743 303.322 191.602 302.832 191.161 302.185Z" fill="url(#paint55_linear)"/>
<path d="M191.161 302.185L183.6 291.492C183.129 290.831 183.515 290.234 184.444 290.145L196.408 289.057C197.336 288.969 198.448 289.445 198.919 290.106L206.48 300.799C206.951 301.46 206.564 302.057 205.636 302.145L193.672 303.233C192.743 303.322 191.602 302.832 191.161 302.185Z" fill="#262626"/>
<path d="M202.023 317.579L194.462 306.886C193.991 306.225 194.377 305.628 195.305 305.539L207.27 304.451C208.198 304.362 209.309 304.838 209.781 305.499L217.342 316.193C217.813 316.853 217.426 317.451 216.498 317.539L204.534 318.627C203.605 318.716 202.494 318.24 202.023 317.579Z" fill="#D6D8ED"/>
<path d="M202.023 317.579L194.462 306.886C193.991 306.225 194.377 305.628 195.305 305.539L207.27 304.451C208.198 304.362 209.309 304.838 209.781 305.499L217.342 316.193C217.813 316.853 217.426 317.451 216.498 317.539L204.534 318.627C203.605 318.716 202.494 318.24 202.023 317.579Z" fill="url(#paint56_linear)"/>
<path d="M202.023 317.579L194.462 306.886C193.991 306.225 194.377 305.628 195.305 305.539L207.27 304.451C208.198 304.362 209.309 304.838 209.781 305.499L217.342 316.193C217.813 316.853 217.426 317.451 216.498 317.539L204.534 318.627C203.605 318.716 202.494 318.24 202.023 317.579Z" fill="#262626"/>
<path d="M212.917 332.988L205.356 322.295C204.885 321.634 205.272 321.037 206.2 320.948L218.164 319.86C219.093 319.772 220.204 320.248 220.675 320.909L228.236 331.602C228.707 332.263 228.321 332.86 227.393 332.948L215.428 334.036C214.5 334.125 213.389 333.649 212.917 332.988Z" fill="#D6D8ED"/>
<path d="M212.917 332.988L205.356 322.295C204.885 321.634 205.272 321.037 206.2 320.948L218.164 319.86C219.093 319.772 220.204 320.248 220.675 320.909L228.236 331.602C228.707 332.263 228.321 332.86 227.393 332.948L215.428 334.036C214.5 334.125 213.389 333.649 212.917 332.988Z" fill="url(#paint57_linear)"/>
<path d="M212.917 332.988L205.356 322.295C204.885 321.634 205.272 321.037 206.2 320.948L218.164 319.86C219.093 319.772 220.204 320.248 220.675 320.909L228.236 331.602C228.707 332.263 228.321 332.86 227.393 332.948L215.428 334.036C214.5 334.125 213.389 333.649 212.917 332.988Z" fill="#262626"/>
<path d="M223.808 348.396L216.247 337.702C215.776 337.042 216.162 336.444 217.091 336.356L229.055 335.268C229.983 335.179 231.095 335.655 231.566 336.316L239.127 347.009C239.598 347.67 239.211 348.267 238.283 348.356L226.319 349.444C225.39 349.533 224.249 349.042 223.808 348.396Z" fill="#D6D8ED"/>
<path d="M223.808 348.396L216.247 337.702C215.776 337.042 216.162 336.444 217.091 336.356L229.055 335.268C229.983 335.179 231.095 335.655 231.566 336.316L239.127 347.009C239.598 347.67 239.211 348.267 238.283 348.356L226.319 349.444C225.39 349.533 224.249 349.042 223.808 348.396Z" fill="url(#paint58_linear)"/>
<path d="M223.808 348.396L216.247 337.702C215.776 337.042 216.162 336.444 217.091 336.356L229.055 335.268C229.983 335.179 231.095 335.655 231.566 336.316L239.127 347.009C239.598 347.67 239.211 348.267 238.283 348.356L226.319 349.444C225.39 349.533 224.249 349.042 223.808 348.396Z" fill="#262626"/>
<path d="M234.675 363.79L227.114 353.097C226.643 352.436 227.03 351.839 227.958 351.751L239.922 350.663C240.851 350.574 241.962 351.05 242.433 351.711L249.994 362.404C250.465 363.065 250.079 363.662 249.15 363.751L237.186 364.839C236.258 364.927 235.146 364.451 234.675 363.79Z" fill="#D6D8ED"/>
<path d="M234.675 363.79L227.114 353.097C226.643 352.436 227.03 351.839 227.958 351.751L239.922 350.663C240.851 350.574 241.962 351.05 242.433 351.711L249.994 362.404C250.465 363.065 250.079 363.662 249.15 363.751L237.186 364.839C236.258 364.927 235.146 364.451 234.675 363.79Z" fill="url(#paint59_linear)"/>
<path d="M234.675 363.79L227.114 353.097C226.643 352.436 227.03 351.839 227.958 351.751L239.922 350.663C240.851 350.574 241.962 351.05 242.433 351.711L249.994 362.404C250.465 363.065 250.079 363.662 249.15 363.751L237.186 364.839C236.258 364.927 235.146 364.451 234.675 363.79Z" fill="#262626"/>
<path d="M245.566 379.197L238.005 368.504C237.534 367.843 237.921 367.246 238.849 367.158L250.813 366.07C251.742 365.981 252.853 366.457 253.324 367.118L260.885 377.811C261.356 378.472 260.97 379.069 260.041 379.158L248.077 380.246C247.163 380.304 246.007 379.844 245.566 379.197Z" fill="#D6D8ED"/>
<path d="M245.566 379.197L238.005 368.504C237.534 367.843 237.921 367.246 238.849 367.158L250.813 366.07C251.742 365.981 252.853 366.457 253.324 367.118L260.885 377.811C261.356 378.472 260.97 379.069 260.041 379.158L248.077 380.246C247.163 380.304 246.007 379.844 245.566 379.197Z" fill="url(#paint60_linear)"/>
<path d="M245.566 379.197L238.005 368.504C237.534 367.843 237.921 367.246 238.849 367.158L250.813 366.07C251.742 365.981 252.853 366.457 253.324 367.118L260.885 377.811C261.356 378.472 260.97 379.069 260.041 379.158L248.077 380.246C247.163 380.304 246.007 379.844 245.566 379.197Z" fill="#262626"/>
<path d="M256.429 394.593L248.869 383.9C248.397 383.239 248.784 382.642 249.712 382.553L261.677 381.465C262.605 381.376 263.716 381.853 264.188 382.513L271.748 393.207C272.22 393.867 271.833 394.465 270.905 394.553L258.94 395.641C258.026 395.699 256.901 395.254 256.429 394.593Z" fill="#D6D8ED"/>
<path d="M256.429 394.593L248.869 383.9C248.397 383.239 248.784 382.642 249.712 382.553L261.677 381.465C262.605 381.376 263.716 381.853 264.188 382.513L271.748 393.207C272.22 393.867 271.833 394.465 270.905 394.553L258.94 395.641C258.026 395.699 256.901 395.254 256.429 394.593Z" fill="url(#paint61_linear)"/>
<path d="M256.429 394.593L248.869 383.9C248.397 383.239 248.784 382.642 249.712 382.553L261.677 381.465C262.605 381.376 263.716 381.853 264.188 382.513L271.748 393.207C272.22 393.867 271.833 394.465 270.905 394.553L258.94 395.641C258.026 395.699 256.901 395.254 256.429 394.593Z" fill="#262626"/>
<path d="M267.324 410.002L259.763 399.309C259.292 398.648 259.678 398.051 260.607 397.962L272.571 396.874C273.499 396.785 274.611 397.262 275.082 397.922L282.643 408.616C283.114 409.276 282.728 409.874 281.799 409.962L269.835 411.05C268.921 411.108 267.795 410.663 267.324 410.002Z" fill="#D6D8ED"/>
<path d="M267.324 410.002L259.763 399.309C259.292 398.648 259.678 398.051 260.607 397.962L272.571 396.874C273.499 396.785 274.611 397.262 275.082 397.922L282.643 408.616C283.114 409.276 282.728 409.874 281.799 409.962L269.835 411.05C268.921 411.108 267.795 410.663 267.324 410.002Z" fill="url(#paint62_linear)"/>
<path d="M267.324 410.002L259.763 399.309C259.292 398.648 259.678 398.051 260.607 397.962L272.571 396.874C273.499 396.785 274.611 397.262 275.082 397.922L282.643 408.616C283.114 409.276 282.728 409.874 281.799 409.962L269.835 411.05C268.921 411.108 267.795 410.663 267.324 410.002Z" fill="#262626"/>
<path d="M278.211 425.407L270.65 414.714C270.179 414.053 270.566 413.456 271.494 413.367L283.458 412.279C284.387 412.191 285.498 412.667 285.969 413.328L293.53 424.021C294.001 424.682 293.615 425.279 292.686 425.368L280.722 426.456C279.808 426.514 278.652 426.054 278.211 425.407Z" fill="#D6D8ED"/>
<path d="M278.211 425.407L270.65 414.714C270.179 414.053 270.566 413.456 271.494 413.367L283.458 412.279C284.387 412.191 285.498 412.667 285.969 413.328L293.53 424.021C294.001 424.682 293.615 425.279 292.686 425.368L280.722 426.456C279.808 426.514 278.652 426.054 278.211 425.407Z" fill="url(#paint63_linear)"/>
<path d="M278.211 425.407L270.65 414.714C270.179 414.053 270.566 413.456 271.494 413.367L283.458 412.279C284.387 412.191 285.498 412.667 285.969 413.328L293.53 424.021C294.001 424.682 293.615 425.279 292.686 425.368L280.722 426.456C279.808 426.514 278.652 426.054 278.211 425.407Z" fill="#262626"/>
<path d="M289.075 440.802L281.515 430.109C281.043 429.448 281.43 428.851 282.358 428.763L294.323 427.675C295.251 427.586 296.362 428.062 296.834 428.723L304.394 439.416C304.866 440.077 304.479 440.674 303.551 440.763L291.586 441.851C290.672 441.909 289.547 441.463 289.075 440.802Z" fill="#D6D8ED"/>
<path d="M289.075 440.802L281.515 430.109C281.043 429.448 281.43 428.851 282.358 428.763L294.323 427.675C295.251 427.586 296.362 428.062 296.834 428.723L304.394 439.416C304.866 440.077 304.479 440.674 303.551 440.763L291.586 441.851C290.672 441.909 289.547 441.463 289.075 440.802Z" fill="url(#paint64_linear)"/>
<path d="M289.075 440.802L281.515 430.109C281.043 429.448 281.43 428.851 282.358 428.763L294.323 427.675C295.251 427.586 296.362 428.062 296.834 428.723L304.394 439.416C304.866 440.077 304.479 440.674 303.551 440.763L291.586 441.851C290.672 441.909 289.547 441.463 289.075 440.802Z" fill="#262626"/>
<path d="M299.969 456.212L292.409 445.519C291.937 444.858 292.324 444.261 293.252 444.172L305.217 443.084C306.145 442.995 307.256 443.471 307.728 444.132L315.288 454.825C315.76 455.486 315.373 456.083 314.445 456.172L302.48 457.26C301.566 457.318 300.41 456.859 299.969 456.212Z" fill="#D6D8ED"/>
<path d="M299.969 456.212L292.409 445.519C291.937 444.858 292.324 444.261 293.252 444.172L305.217 443.084C306.145 442.995 307.256 443.471 307.728 444.132L315.288 454.825C315.76 455.486 315.373 456.083 314.445 456.172L302.48 457.26C301.566 457.318 300.41 456.859 299.969 456.212Z" fill="url(#paint65_linear)"/>
<path d="M299.969 456.212L292.409 445.519C291.937 444.858 292.324 444.261 293.252 444.172L305.217 443.084C306.145 442.995 307.256 443.471 307.728 444.132L315.288 454.825C315.76 455.486 315.373 456.083 314.445 456.172L302.48 457.26C301.566 457.318 300.41 456.859 299.969 456.212Z" fill="#262626"/>
<path d="M261.989 430.44L251.991 416.294C251.487 415.545 251.902 414.886 252.95 414.779L264.45 413.735C265.498 413.628 266.761 414.175 267.31 414.908L277.307 429.053C277.812 429.803 277.397 430.461 276.349 430.568L264.849 431.612C263.801 431.72 262.493 431.189 261.989 430.44Z" fill="#D6D8ED"/>
<path d="M261.989 430.44L251.991 416.294C251.487 415.545 251.902 414.886 252.95 414.779L264.45 413.735C265.498 413.628 266.761 414.175 267.31 414.908L277.307 429.053C277.812 429.803 277.397 430.461 276.349 430.568L264.849 431.612C263.801 431.72 262.493 431.189 261.989 430.44Z" fill="url(#paint66_linear)"/>
<path d="M261.989 430.44L251.991 416.294C251.487 415.545 251.902 414.886 252.95 414.779L264.45 413.735C265.498 413.628 266.761 414.175 267.31 414.908L277.307 429.053C277.812 429.803 277.397 430.461 276.349 430.568L264.849 431.612C263.801 431.72 262.493 431.189 261.989 430.44Z" fill="#262626"/>
<path d="M272.988 446.009L265.428 435.315C264.956 434.654 265.343 434.057 266.271 433.969L278.236 432.881C279.164 432.792 280.275 433.268 280.747 433.929L288.307 444.622C288.779 445.283 288.392 445.88 287.464 445.969L275.499 447.057C274.585 447.115 273.429 446.655 272.988 446.009Z" fill="#D6D8ED"/>
<path d="M272.988 446.009L265.428 435.315C264.956 434.654 265.343 434.057 266.271 433.969L278.236 432.881C279.164 432.792 280.275 433.268 280.747 433.929L288.307 444.622C288.779 445.283 288.392 445.88 287.464 445.969L275.499 447.057C274.585 447.115 273.429 446.655 272.988 446.009Z" fill="url(#paint67_linear)"/>
<path d="M272.988 446.009L265.428 435.315C264.956 434.654 265.343 434.057 266.271 433.969L278.236 432.881C279.164 432.792 280.275 433.268 280.747 433.929L288.307 444.622C288.779 445.283 288.392 445.88 287.464 445.969L275.499 447.057C274.585 447.115 273.429 446.655 272.988 446.009Z" fill="#262626"/>
<path d="M283.853 461.403L276.292 450.71C275.821 450.049 276.207 449.452 277.136 449.363L289.1 448.275C290.028 448.187 291.14 448.663 291.611 449.324L299.172 460.017C299.643 460.678 299.256 461.275 298.328 461.363L286.364 462.452C285.449 462.51 284.324 462.064 283.853 461.403Z" fill="#D6D8ED"/>
<path d="M283.853 461.403L276.292 450.71C275.821 450.049 276.207 449.452 277.136 449.363L289.1 448.275C290.028 448.187 291.14 448.663 291.611 449.324L299.172 460.017C299.643 460.678 299.256 461.275 298.328 461.363L286.364 462.452C285.449 462.51 284.324 462.064 283.853 461.403Z" fill="url(#paint68_linear)"/>
<path d="M283.853 461.403L276.292 450.71C275.821 450.049 276.207 449.452 277.136 449.363L289.1 448.275C290.028 448.187 291.14 448.663 291.611 449.324L299.172 460.017C299.643 460.678 299.256 461.275 298.328 461.363L286.364 462.452C285.449 462.51 284.324 462.064 283.853 461.403Z" fill="#262626"/>
<path d="M294.687 476.71L287.126 466.017C286.655 465.356 287.041 464.759 287.97 464.67L299.934 463.582C300.862 463.493 301.974 463.969 302.445 464.63L310.006 475.323C310.477 475.984 310.09 476.582 309.162 476.67L297.198 477.758C296.269 477.847 295.158 477.371 294.687 476.71Z" fill="#D6D8ED"/>
<path d="M294.687 476.71L287.126 466.017C286.655 465.356 287.041 464.759 287.97 464.67L299.934 463.582C300.862 463.493 301.974 463.969 302.445 464.63L310.006 475.323C310.477 475.984 310.09 476.582 309.162 476.67L297.198 477.758C296.269 477.847 295.158 477.371 294.687 476.71Z" fill="url(#paint69_linear)"/>
<path d="M294.687 476.71L287.126 466.017C286.655 465.356 287.041 464.759 287.97 464.67L299.934 463.582C300.862 463.493 301.974 463.969 302.445 464.63L310.006 475.323C310.477 475.984 310.09 476.582 309.162 476.67L297.198 477.758C296.269 477.847 295.158 477.371 294.687 476.71Z" fill="#262626"/>
<path d="M305.563 492.148L298.002 481.455C297.531 480.794 297.918 480.197 298.846 480.108L310.81 479.02C311.739 478.932 312.85 479.408 313.321 480.069L320.882 490.762C321.353 491.423 320.967 492.02 320.038 492.108L308.074 493.197C307.16 493.255 306.034 492.809 305.563 492.148Z" fill="#D6D8ED"/>
<path d="M305.563 492.148L298.002 481.455C297.531 480.794 297.918 480.197 298.846 480.108L310.81 479.02C311.739 478.932 312.85 479.408 313.321 480.069L320.882 490.762C321.353 491.423 320.967 492.02 320.038 492.108L308.074 493.197C307.16 493.255 306.034 492.809 305.563 492.148Z" fill="url(#paint70_linear)"/>
<path d="M305.563 492.148L298.002 481.455C297.531 480.794 297.918 480.197 298.846 480.108L310.81 479.02C311.739 478.932 312.85 479.408 313.321 480.069L320.882 490.762C321.353 491.423 320.967 492.02 320.038 492.108L308.074 493.197C307.16 493.255 306.034 492.809 305.563 492.148Z" fill="#262626"/>
<path d="M323.673 489.76L303.742 461.573C303.034 460.545 303.606 459.627 305.043 459.477L315.12 458.552C316.543 458.434 318.322 459.144 319.031 460.173L338.962 488.36C339.67 489.389 339.098 490.307 337.661 490.456L327.584 491.381C326.161 491.5 324.382 490.789 323.673 489.76Z" fill="#D6D8ED"/>
<path d="M323.673 489.76L303.742 461.573C303.034 460.545 303.606 459.627 305.043 459.477L315.12 458.552C316.543 458.434 318.322 459.144 319.031 460.173L338.962 488.36C339.67 489.389 339.098 490.307 337.661 490.456L327.584 491.381C326.161 491.5 324.382 490.789 323.673 489.76Z" fill="url(#paint71_linear)"/>
<path d="M323.673 489.76L303.742 461.573C303.034 460.545 303.606 459.627 305.043 459.477L315.12 458.552C316.543 458.434 318.322 459.144 319.031 460.173L338.962 488.36C339.67 489.389 339.098 490.307 337.661 490.456L327.584 491.381C326.161 491.5 324.382 490.789 323.673 489.76Z" fill="#262626"/>
<path d="M158.698 284.244L151.138 273.55C150.666 272.89 151.053 272.292 151.981 272.204L163.946 271.116C164.874 271.027 165.985 271.503 166.457 272.164L174.017 282.857C174.489 283.518 174.102 284.115 173.174 284.204L161.209 285.292C160.281 285.381 159.17 284.904 158.698 284.244Z" fill="#D6D8ED"/>
<path d="M158.698 284.244L151.138 273.55C150.666 272.89 151.053 272.292 151.981 272.204L163.946 271.116C164.874 271.027 165.985 271.503 166.457 272.164L174.017 282.857C174.489 283.518 174.102 284.115 173.174 284.204L161.209 285.292C160.281 285.381 159.17 284.904 158.698 284.244Z" fill="url(#paint72_linear)"/>
<path d="M158.698 284.244L151.138 273.55C150.666 272.89 151.053 272.292 151.981 272.204L163.946 271.116C164.874 271.027 165.985 271.503 166.457 272.164L174.017 282.857C174.489 283.518 174.102 284.115 173.174 284.204L161.209 285.292C160.281 285.381 159.17 284.904 158.698 284.244Z" fill="#262626"/>
<path d="M169.528 299.623L161.981 288.899C161.51 288.238 161.897 287.641 162.825 287.553L174.789 286.465C175.718 286.376 176.829 286.852 177.3 287.513L184.861 298.206C185.332 298.867 184.946 299.464 184.017 299.553L172.053 300.641C171.125 300.729 170.013 300.253 169.528 299.623Z" fill="#D6D8ED"/>
<path d="M169.528 299.623L161.981 288.899C161.51 288.238 161.897 287.641 162.825 287.553L174.789 286.465C175.718 286.376 176.829 286.852 177.3 287.513L184.861 298.206C185.332 298.867 184.946 299.464 184.017 299.553L172.053 300.641C171.125 300.729 170.013 300.253 169.528 299.623Z" fill="url(#paint73_linear)"/>
<path d="M169.528 299.623L161.981 288.899C161.51 288.238 161.897 287.641 162.825 287.553L174.789 286.465C175.718 286.376 176.829 286.852 177.3 287.513L184.861 298.206C185.332 298.867 184.946 299.464 184.017 299.553L172.053 300.641C171.125 300.729 170.013 300.253 169.528 299.623Z" fill="#262626"/>
<path d="M180.422 315.031L172.861 304.338C172.39 303.677 172.777 303.08 173.705 302.991L185.669 301.903C186.598 301.815 187.709 302.291 188.18 302.952L195.741 313.645C196.212 314.306 195.826 314.903 194.897 314.991L182.933 316.079C182.019 316.138 180.877 315.647 180.422 315.031Z" fill="#D6D8ED"/>
<path d="M180.422 315.031L172.861 304.338C172.39 303.677 172.777 303.08 173.705 302.991L185.669 301.903C186.598 301.815 187.709 302.291 188.18 302.952L195.741 313.645C196.212 314.306 195.826 314.903 194.897 314.991L182.933 316.079C182.019 316.138 180.877 315.647 180.422 315.031Z" fill="url(#paint74_linear)"/>
<path d="M180.422 315.031L172.861 304.338C172.39 303.677 172.777 303.08 173.705 302.991L185.669 301.903C186.598 301.815 187.709 302.291 188.18 302.952L195.741 313.645C196.212 314.306 195.826 314.903 194.897 314.991L182.933 316.079C182.019 316.138 180.877 315.647 180.422 315.031Z" fill="#262626"/>
<path d="M194.209 334.508L183.881 319.878C183.346 319.114 183.775 318.426 184.853 318.333L196.309 317.305C197.357 317.198 198.665 317.728 199.2 318.492L209.528 333.122C210.062 333.886 209.634 334.575 208.555 334.668L197.1 335.695C196.021 335.788 194.713 335.258 194.209 334.508Z" fill="#D6D8ED"/>
<path d="M194.209 334.508L183.881 319.878C183.346 319.114 183.775 318.426 184.853 318.333L196.309 317.305C197.357 317.198 198.665 317.728 199.2 318.492L209.528 333.122C210.062 333.886 209.634 334.575 208.555 334.668L197.1 335.695C196.021 335.788 194.713 335.258 194.209 334.508Z" fill="url(#paint75_linear)"/>
<path d="M194.209 334.508L183.881 319.878C183.346 319.114 183.775 318.426 184.853 318.333L196.309 317.305C197.357 317.198 198.665 317.728 199.2 318.492L209.528 333.122C210.062 333.886 209.634 334.575 208.555 334.668L197.1 335.695C196.021 335.788 194.713 335.258 194.209 334.508Z" fill="#262626"/>
<path d="M248.279 411.035L197.915 339.766C197.193 338.768 197.778 337.819 199.201 337.7L209.354 336.773C210.777 336.654 212.511 337.381 213.203 338.366L263.567 409.635C264.289 410.633 263.704 411.581 262.281 411.7L252.128 412.627C250.736 412.76 248.987 412.064 248.279 411.035Z" fill="#D6D8ED"/>
<path d="M248.279 411.035L197.915 339.766C197.193 338.768 197.778 337.819 199.201 337.7L209.354 336.773C210.777 336.654 212.511 337.381 213.203 338.366L263.567 409.635C264.289 410.633 263.704 411.581 262.281 411.7L252.128 412.627C250.736 412.76 248.987 412.064 248.279 411.035Z" fill="url(#paint76_linear)"/>
<path d="M248.279 411.035L197.915 339.766C197.193 338.768 197.778 337.819 199.201 337.7L209.354 336.773C210.777 336.654 212.511 337.381 213.203 338.366L263.567 409.635C264.289 410.633 263.704 411.581 262.281 411.7L252.128 412.627C250.736 412.76 248.987 412.064 248.279 411.035Z" fill="#262626"/>
<path d="M378.721 485.142L366.351 467.648C365.769 466.826 366.226 466.076 367.379 465.981L378.491 464.979C379.644 464.884 381.043 465.456 381.625 466.278L393.996 483.772C394.577 484.595 394.12 485.344 392.967 485.44L381.856 486.441C380.703 486.537 379.303 485.965 378.721 485.142Z" fill="#D6D8ED"/>
<path d="M378.721 485.142L366.351 467.648C365.769 466.826 366.226 466.076 367.379 465.981L378.491 464.979C379.644 464.884 381.043 465.456 381.625 466.278L393.996 483.772C394.577 484.595 394.12 485.344 392.967 485.44L381.856 486.441C380.703 486.537 379.303 485.965 378.721 485.142Z" fill="url(#paint77_linear)"/>
<path d="M378.721 485.142L366.351 467.648C365.769 466.826 366.226 466.076 367.379 465.981L378.491 464.979C379.644 464.884 381.043 465.456 381.625 466.278L393.996 483.772C394.577 484.595 394.12 485.344 392.967 485.44L381.856 486.441C380.703 486.537 379.303 485.965 378.721 485.142Z" fill="#262626"/>
<path d="M190.129 421.568L143.867 356.071C142.326 353.882 143.584 351.877 146.639 351.588L191.831 347.483C194.885 347.194 198.674 348.759 200.215 350.947L246.477 416.444C248.018 418.633 246.76 420.638 243.705 420.927L198.513 425.032C195.459 425.321 191.67 423.757 190.129 421.568Z" fill="black"/>
<path d="M190.129 421.568L143.867 356.071C142.326 353.882 143.584 351.877 146.639 351.588L191.831 347.483C194.885 347.194 198.674 348.759 200.215 350.947L246.477 416.444C248.018 418.633 246.76 420.638 243.705 420.927L198.513 425.032C195.459 425.321 191.67 423.757 190.129 421.568Z" fill="black"/>
<path d="M190.129 421.568L143.867 356.071C142.326 353.882 143.584 351.877 146.639 351.588L191.831 347.483C194.885 347.194 198.674 348.759 200.215 350.947L246.477 416.444C248.018 418.633 246.76 420.638 243.705 420.927L198.513 425.032C195.459 425.321 191.67 423.757 190.129 421.568Z" fill="#262626"/>
<path d="M245.552 418.456L199.289 352.959C197.749 350.77 193.99 349.22 190.906 349.494L145.713 353.6C144.635 353.693 143.789 354.004 143.203 354.472C143.08 352.975 144.351 351.826 146.627 351.621L191.819 347.515C194.874 347.226 198.662 348.791 200.203 350.98L246.465 416.477C247.471 417.902 247.273 419.213 246.173 420.072C246.157 419.548 245.96 419.014 245.552 418.456Z" fill="black"/>
<path d="M266.627 249.152L437.008 490.296C441.189 496.215 447.483 494.836 450.983 487.255L519.059 339.799C522.559 332.218 522.014 321.144 517.833 315.224L347.452 74.0809C343.271 68.1613 336.977 69.5404 333.477 77.1217L265.401 224.578C261.871 232.145 262.415 243.219 266.627 249.152Z" fill="#262626"/>
<path d="M270.968 238.303L442.134 480.548L513.471 326.028L342.305 83.783L270.968 238.303Z" fill="#D6D8ED"/>
<path d="M270.968 238.303L442.134 480.548L513.471 326.028L342.305 83.783L270.968 238.303Z" fill="url(#paint78_linear)"/>
<defs>
<linearGradient id="paint0_linear" x1="261.333" y1="264.989" x2="253.229" y2="282.544" gradientUnits="userSpaceOnUse">
<stop stop-color="#810EC8"/>
<stop offset="1" stop-color="#33BAFD"/>
</linearGradient>
<linearGradient id="paint1_linear" x1="273.915" y1="286.193" x2="267.721" y2="299.608" gradientUnits="userSpaceOnUse">
<stop stop-color="#810EC8"/>
<stop offset="1" stop-color="#33BAFD"/>
</linearGradient>
<linearGradient id="paint2_linear" x1="284.807" y1="301.601" x2="278.613" y2="315.016" gradientUnits="userSpaceOnUse">
<stop stop-color="#810EC8"/>
<stop offset="1" stop-color="#33BAFD"/>
</linearGradient>
<linearGradient id="paint3_linear" x1="295.674" y1="316.996" x2="289.48" y2="330.411" gradientUnits="userSpaceOnUse">
<stop stop-color="#810EC8"/>
<stop offset="1" stop-color="#33BAFD"/>
</linearGradient>
<linearGradient id="paint4_linear" x1="306.564" y1="332.403" x2="300.371" y2="345.818" gradientUnits="userSpaceOnUse">
<stop stop-color="#810EC8"/>
<stop offset="1" stop-color="#33BAFD"/>
</linearGradient>
<linearGradient id="paint5_linear" x1="317.455" y1="347.811" x2="311.262" y2="361.226" gradientUnits="userSpaceOnUse">
<stop stop-color="#810EC8"/>
<stop offset="1" stop-color="#33BAFD"/>
</linearGradient>
<linearGradient id="paint6_linear" x1="328.319" y1="363.206" x2="322.126" y2="376.621" gradientUnits="userSpaceOnUse">
<stop stop-color="#810EC8"/>
<stop offset="1" stop-color="#33BAFD"/>
</linearGradient>
<linearGradient id="paint7_linear" x1="339.213" y1="378.615" x2="333.025" y2="392.02" gradientUnits="userSpaceOnUse">
<stop stop-color="#810EC8"/>
<stop offset="1" stop-color="#33BAFD"/>
</linearGradient>
<linearGradient id="paint8_linear" x1="350.074" y1="394.008" x2="343.885" y2="407.413" gradientUnits="userSpaceOnUse">
<stop stop-color="#810EC8"/>
<stop offset="1" stop-color="#33BAFD"/>
</linearGradient>
<linearGradient id="paint9_linear" x1="360.968" y1="409.417" x2="354.779" y2="422.822" gradientUnits="userSpaceOnUse">
<stop stop-color="#810EC8"/>
<stop offset="1" stop-color="#33BAFD"/>
</linearGradient>
<linearGradient id="paint10_linear" x1="371.831" y1="424.811" x2="365.643" y2="438.216" gradientUnits="userSpaceOnUse">
<stop stop-color="#810EC8"/>
<stop offset="1" stop-color="#33BAFD"/>
</linearGradient>
<linearGradient id="paint11_linear" x1="382.73" y1="440.22" x2="376.541" y2="453.625" gradientUnits="userSpaceOnUse">
<stop stop-color="#810EC8"/>
<stop offset="1" stop-color="#33BAFD"/>
</linearGradient>
<linearGradient id="paint12_linear" x1="393.617" y1="455.626" x2="387.428" y2="469.031" gradientUnits="userSpaceOnUse">
<stop stop-color="#810EC8"/>
<stop offset="1" stop-color="#33BAFD"/>
</linearGradient>
<linearGradient id="paint13_linear" x1="404.453" y1="471.008" x2="398.264" y2="484.413" gradientUnits="userSpaceOnUse">
<stop stop-color="#810EC8"/>
<stop offset="1" stop-color="#33BAFD"/>
</linearGradient>
<linearGradient id="paint14_linear" x1="239.031" y1="264.843" x2="232.842" y2="278.248" gradientUnits="userSpaceOnUse">
<stop stop-color="#810EC8"/>
<stop offset="1" stop-color="#33BAFD"/>
</linearGradient>
<linearGradient id="paint15_linear" x1="224.155" y1="268.399" x2="216.056" y2="285.943" gradientUnits="userSpaceOnUse">
<stop stop-color="#810EC8"/>
<stop offset="1" stop-color="#33BAFD"/>
</linearGradient>
<linearGradient id="paint16_linear" x1="208.075" y1="270.997" x2="198.945" y2="290.773" gradientUnits="userSpaceOnUse">
<stop stop-color="#810EC8"/>
<stop offset="1" stop-color="#33BAFD"/>
</linearGradient>
<linearGradient id="paint17_linear" x1="186.098" y1="270.743" x2="178.959" y2="286.207" gradientUnits="userSpaceOnUse">
<stop stop-color="#810EC8"/>
<stop offset="1" stop-color="#33BAFD"/>
</linearGradient>
<linearGradient id="paint18_linear" x1="249.894" y1="280.238" x2="243.706" y2="293.643" gradientUnits="userSpaceOnUse">
<stop stop-color="#810EC8"/>
<stop offset="1" stop-color="#33BAFD"/>
</linearGradient>
<linearGradient id="paint19_linear" x1="260.786" y1="295.646" x2="254.597" y2="309.051" gradientUnits="userSpaceOnUse">
<stop stop-color="#810EC8"/>
<stop offset="1" stop-color="#33BAFD"/>
</linearGradient>
<linearGradient id="paint20_linear" x1="271.68" y1="311.055" x2="265.491" y2="324.46" gradientUnits="userSpaceOnUse">
<stop stop-color="#810EC8"/>
<stop offset="1" stop-color="#33BAFD"/>
</linearGradient>
<linearGradient id="paint21_linear" x1="282.543" y1="326.448" x2="276.354" y2="339.854" gradientUnits="userSpaceOnUse">
<stop stop-color="#810EC8"/>
<stop offset="1" stop-color="#33BAFD"/>
</linearGradient>
<linearGradient id="paint22_linear" x1="293.437" y1="341.857" x2="287.254" y2="355.25" gradientUnits="userSpaceOnUse">
<stop stop-color="#810EC8"/>
<stop offset="1" stop-color="#33BAFD"/>
</linearGradient>
<linearGradient id="paint23_linear" x1="304.323" y1="357.222" x2="298.129" y2="370.637" gradientUnits="userSpaceOnUse">
<stop stop-color="#810EC8"/>
<stop offset="1" stop-color="#33BAFD"/>
</linearGradient>
<linearGradient id="paint24_linear" x1="315.206" y1="372.63" x2="309.013" y2="386.045" gradientUnits="userSpaceOnUse">
<stop stop-color="#810EC8"/>
<stop offset="1" stop-color="#33BAFD"/>
</linearGradient>
<linearGradient id="paint25_linear" x1="326.07" y1="388.022" x2="319.876" y2="401.437" gradientUnits="userSpaceOnUse">
<stop stop-color="#810EC8"/>
<stop offset="1" stop-color="#33BAFD"/>
</linearGradient>
<linearGradient id="paint26_linear" x1="336.964" y1="403.431" x2="330.771" y2="416.846" gradientUnits="userSpaceOnUse">
<stop stop-color="#810EC8"/>
<stop offset="1" stop-color="#33BAFD"/>
</linearGradient>
<linearGradient id="paint27_linear" x1="347.859" y1="418.839" x2="341.665" y2="432.254" gradientUnits="userSpaceOnUse">
<stop stop-color="#810EC8"/>
<stop offset="1" stop-color="#33BAFD"/>
</linearGradient>
<linearGradient id="paint28_linear" x1="358.72" y1="434.235" x2="352.526" y2="447.65" gradientUnits="userSpaceOnUse">
<stop stop-color="#810EC8"/>
<stop offset="1" stop-color="#33BAFD"/>
</linearGradient>
<linearGradient id="paint29_linear" x1="369.614" y1="449.641" x2="363.425" y2="463.046" gradientUnits="userSpaceOnUse">
<stop stop-color="#810EC8"/>
<stop offset="1" stop-color="#33BAFD"/>
</linearGradient>
<linearGradient id="paint30_linear" x1="237.157" y1="290.13" x2="230.968" y2="303.535" gradientUnits="userSpaceOnUse">
<stop stop-color="#810EC8"/>
<stop offset="1" stop-color="#33BAFD"/>
</linearGradient>
<linearGradient id="paint31_linear" x1="248.018" y1="305.522" x2="241.829" y2="318.928" gradientUnits="userSpaceOnUse">
<stop stop-color="#810EC8"/>
<stop offset="1" stop-color="#33BAFD"/>
</linearGradient>
<linearGradient id="paint32_linear" x1="258.916" y1="320.931" x2="252.728" y2="334.336" gradientUnits="userSpaceOnUse">
<stop stop-color="#810EC8"/>
<stop offset="1" stop-color="#33BAFD"/>
</linearGradient>
<linearGradient id="paint33_linear" x1="269.789" y1="336.296" x2="263.588" y2="349.729" gradientUnits="userSpaceOnUse">
<stop stop-color="#810EC8"/>
<stop offset="1" stop-color="#33BAFD"/>
</linearGradient>
<linearGradient id="paint34_linear" x1="280.667" y1="351.734" x2="274.478" y2="365.139" gradientUnits="userSpaceOnUse">
<stop stop-color="#810EC8"/>
<stop offset="1" stop-color="#33BAFD"/>
</linearGradient>
<linearGradient id="paint35_linear" x1="291.565" y1="367.144" x2="285.382" y2="380.536" gradientUnits="userSpaceOnUse">
<stop stop-color="#810EC8"/>
<stop offset="1" stop-color="#33BAFD"/>
</linearGradient>
<linearGradient id="paint36_linear" x1="302.441" y1="382.505" x2="296.246" y2="395.926" gradientUnits="userSpaceOnUse">
<stop stop-color="#810EC8"/>
<stop offset="1" stop-color="#33BAFD"/>
</linearGradient>
<linearGradient id="paint37_linear" x1="313.332" y1="397.914" x2="307.138" y2="411.329" gradientUnits="userSpaceOnUse">
<stop stop-color="#810EC8"/>
<stop offset="1" stop-color="#33BAFD"/>
</linearGradient>
<linearGradient id="paint38_linear" x1="324.226" y1="413.323" x2="318.033" y2="426.738" gradientUnits="userSpaceOnUse">
<stop stop-color="#810EC8"/>
<stop offset="1" stop-color="#33BAFD"/>
</linearGradient>
<linearGradient id="paint39_linear" x1="335.088" y1="428.717" x2="328.895" y2="442.132" gradientUnits="userSpaceOnUse">
<stop stop-color="#810EC8"/>
<stop offset="1" stop-color="#33BAFD"/>
</linearGradient>
<linearGradient id="paint40_linear" x1="345.983" y1="444.125" x2="339.789" y2="457.54" gradientUnits="userSpaceOnUse">
<stop stop-color="#810EC8"/>
<stop offset="1" stop-color="#33BAFD"/>
</linearGradient>
<linearGradient id="paint41_linear" x1="356.85" y1="459.52" x2="350.656" y2="472.935" gradientUnits="userSpaceOnUse">
<stop stop-color="#810EC8"/>
<stop offset="1" stop-color="#33BAFD"/>
</linearGradient>
<linearGradient id="paint42_linear" x1="221.581" y1="295.349" x2="215.387" y2="308.765" gradientUnits="userSpaceOnUse">
<stop stop-color="#810EC8"/>
<stop offset="1" stop-color="#33BAFD"/>
</linearGradient>
<linearGradient id="paint43_linear" x1="232.472" y1="310.757" x2="226.278" y2="324.172" gradientUnits="userSpaceOnUse">
<stop stop-color="#810EC8"/>
<stop offset="1" stop-color="#33BAFD"/>
</linearGradient>
<linearGradient id="paint44_linear" x1="243.335" y1="326.152" x2="237.141" y2="339.567" gradientUnits="userSpaceOnUse">
<stop stop-color="#810EC8"/>
<stop offset="1" stop-color="#33BAFD"/>
</linearGradient>
<linearGradient id="paint45_linear" x1="254.237" y1="341.561" x2="248.043" y2="354.976" gradientUnits="userSpaceOnUse">
<stop stop-color="#810EC8"/>
<stop offset="1" stop-color="#33BAFD"/>
</linearGradient>
<linearGradient id="paint46_linear" x1="265.093" y1="356.954" x2="258.9" y2="370.37" gradientUnits="userSpaceOnUse">
<stop stop-color="#810EC8"/>
<stop offset="1" stop-color="#33BAFD"/>
</linearGradient>
<linearGradient id="paint47_linear" x1="275.988" y1="372.364" x2="269.794" y2="385.779" gradientUnits="userSpaceOnUse">
<stop stop-color="#810EC8"/>
<stop offset="1" stop-color="#33BAFD"/>
</linearGradient>
<linearGradient id="paint48_linear" x1="286.882" y1="387.771" x2="280.693" y2="401.176" gradientUnits="userSpaceOnUse">
<stop stop-color="#810EC8"/>
<stop offset="1" stop-color="#33BAFD"/>
</linearGradient>
<linearGradient id="paint49_linear" x1="297.746" y1="403.166" x2="291.557" y2="416.572" gradientUnits="userSpaceOnUse">
<stop stop-color="#810EC8"/>
<stop offset="1" stop-color="#33BAFD"/>
</linearGradient>
<linearGradient id="paint50_linear" x1="308.633" y1="418.573" x2="302.445" y2="431.979" gradientUnits="userSpaceOnUse">
<stop stop-color="#810EC8"/>
<stop offset="1" stop-color="#33BAFD"/>
</linearGradient>
<linearGradient id="paint51_linear" x1="319.5" y1="433.969" x2="313.311" y2="447.374" gradientUnits="userSpaceOnUse">
<stop stop-color="#810EC8"/>
<stop offset="1" stop-color="#33BAFD"/>
</linearGradient>
<linearGradient id="paint52_linear" x1="330.394" y1="449.376" x2="324.206" y2="462.781" gradientUnits="userSpaceOnUse">
<stop stop-color="#810EC8"/>
<stop offset="1" stop-color="#33BAFD"/>
</linearGradient>
<linearGradient id="paint53_linear" x1="341.292" y1="464.785" x2="335.104" y2="478.19" gradientUnits="userSpaceOnUse">
<stop stop-color="#810EC8"/>
<stop offset="1" stop-color="#33BAFD"/>
</linearGradient>
<linearGradient id="paint54_linear" x1="362.141" y1="471.992" x2="352.168" y2="493.595" gradientUnits="userSpaceOnUse">
<stop stop-color="#810EC8"/>
<stop offset="1" stop-color="#33BAFD"/>
</linearGradient>
<linearGradient id="paint55_linear" x1="198.137" y1="289.438" x2="191.943" y2="302.853" gradientUnits="userSpaceOnUse">
<stop stop-color="#810EC8"/>
<stop offset="1" stop-color="#33BAFD"/>
</linearGradient>
<linearGradient id="paint56_linear" x1="208.998" y1="304.831" x2="202.805" y2="318.247" gradientUnits="userSpaceOnUse">
<stop stop-color="#810EC8"/>
<stop offset="1" stop-color="#33BAFD"/>
</linearGradient>
<linearGradient id="paint57_linear" x1="219.893" y1="320.241" x2="213.7" y2="333.656" gradientUnits="userSpaceOnUse">
<stop stop-color="#810EC8"/>
<stop offset="1" stop-color="#33BAFD"/>
</linearGradient>
<linearGradient id="paint58_linear" x1="230.784" y1="335.648" x2="224.59" y2="349.064" gradientUnits="userSpaceOnUse">
<stop stop-color="#810EC8"/>
<stop offset="1" stop-color="#33BAFD"/>
</linearGradient>
<linearGradient id="paint59_linear" x1="241.651" y1="351.043" x2="235.457" y2="364.459" gradientUnits="userSpaceOnUse">
<stop stop-color="#810EC8"/>
<stop offset="1" stop-color="#33BAFD"/>
</linearGradient>
<linearGradient id="paint60_linear" x1="252.542" y1="366.45" x2="246.353" y2="379.855" gradientUnits="userSpaceOnUse">
<stop stop-color="#810EC8"/>
<stop offset="1" stop-color="#33BAFD"/>
</linearGradient>
<linearGradient id="paint61_linear" x1="263.405" y1="381.845" x2="257.216" y2="395.251" gradientUnits="userSpaceOnUse">
<stop stop-color="#810EC8"/>
<stop offset="1" stop-color="#33BAFD"/>
</linearGradient>
<linearGradient id="paint62_linear" x1="274.3" y1="397.254" x2="268.111" y2="410.66" gradientUnits="userSpaceOnUse">
<stop stop-color="#810EC8"/>
<stop offset="1" stop-color="#33BAFD"/>
</linearGradient>
<linearGradient id="paint63_linear" x1="285.187" y1="412.66" x2="278.998" y2="426.065" gradientUnits="userSpaceOnUse">
<stop stop-color="#810EC8"/>
<stop offset="1" stop-color="#33BAFD"/>
</linearGradient>
<linearGradient id="paint64_linear" x1="296.051" y1="428.055" x2="289.862" y2="441.46" gradientUnits="userSpaceOnUse">
<stop stop-color="#810EC8"/>
<stop offset="1" stop-color="#33BAFD"/>
</linearGradient>
<linearGradient id="paint65_linear" x1="306.945" y1="443.464" x2="300.756" y2="456.869" gradientUnits="userSpaceOnUse">
<stop stop-color="#810EC8"/>
<stop offset="1" stop-color="#33BAFD"/>
</linearGradient>
<linearGradient id="paint66_linear" x1="268.198" y1="414.987" x2="261.095" y2="430.373" gradientUnits="userSpaceOnUse">
<stop stop-color="#810EC8"/>
<stop offset="1" stop-color="#33BAFD"/>
</linearGradient>
<linearGradient id="paint67_linear" x1="279.964" y1="433.261" x2="273.776" y2="446.666" gradientUnits="userSpaceOnUse">
<stop stop-color="#810EC8"/>
<stop offset="1" stop-color="#33BAFD"/>
</linearGradient>
<linearGradient id="paint68_linear" x1="290.829" y1="448.656" x2="284.64" y2="462.061" gradientUnits="userSpaceOnUse">
<stop stop-color="#810EC8"/>
<stop offset="1" stop-color="#33BAFD"/>
</linearGradient>
<linearGradient id="paint69_linear" x1="301.663" y1="463.962" x2="295.469" y2="477.378" gradientUnits="userSpaceOnUse">
<stop stop-color="#810EC8"/>
<stop offset="1" stop-color="#33BAFD"/>
</linearGradient>
<linearGradient id="paint70_linear" x1="312.539" y1="479.401" x2="306.35" y2="492.806" gradientUnits="userSpaceOnUse">
<stop stop-color="#810EC8"/>
<stop offset="1" stop-color="#33BAFD"/>
</linearGradient>
<linearGradient id="paint71_linear" x1="326.752" y1="463.27" x2="315.952" y2="486.663" gradientUnits="userSpaceOnUse">
<stop stop-color="#810EC8"/>
<stop offset="1" stop-color="#33BAFD"/>
</linearGradient>
<linearGradient id="paint72_linear" x1="165.674" y1="271.496" x2="159.481" y2="284.912" gradientUnits="userSpaceOnUse">
<stop stop-color="#810EC8"/>
<stop offset="1" stop-color="#33BAFD"/>
</linearGradient>
<linearGradient id="paint73_linear" x1="176.518" y1="286.845" x2="170.322" y2="300.265" gradientUnits="userSpaceOnUse">
<stop stop-color="#810EC8"/>
<stop offset="1" stop-color="#33BAFD"/>
</linearGradient>
<linearGradient id="paint74_linear" x1="187.398" y1="302.284" x2="181.215" y2="315.676" gradientUnits="userSpaceOnUse">
<stop stop-color="#810EC8"/>
<stop offset="1" stop-color="#33BAFD"/>
</linearGradient>
<linearGradient id="paint75_linear" x1="200.322" y1="318.664" x2="193.087" y2="334.336" gradientUnits="userSpaceOnUse">
<stop stop-color="#810EC8"/>
<stop offset="1" stop-color="#33BAFD"/>
</linearGradient>
<linearGradient id="paint76_linear" x1="241.659" y1="351.051" x2="219.817" y2="398.362" gradientUnits="userSpaceOnUse">
<stop stop-color="#810EC8"/>
<stop offset="1" stop-color="#33BAFD"/>
</linearGradient>
<linearGradient id="paint77_linear" x1="384.16" y1="467.075" x2="376.187" y2="484.345" gradientUnits="userSpaceOnUse">
<stop stop-color="#810EC8"/>
<stop offset="1" stop-color="#33BAFD"/>
</linearGradient>
<linearGradient id="paint78_linear" x1="458.946" y1="137.632" x2="325.493" y2="426.698" gradientUnits="userSpaceOnUse">
<stop stop-color="#FFC761"/>
<stop offset="1" stop-color="#FA4418"/>
</linearGradient>
</defs>
</svg>
