<svg width="38" height="57" viewBox="0 0 38 57" fill="none" xmlns="http://www.w3.org/2000/svg">
<path d="M30 32.7998V27.5998C30 16.9998 25.8 6.9998 18.6 0.799805C11.9 7.0998 8 16.5998 8 26.7998V32.7998C8 36.2998 9.2 39.4998 11.1 41.7998H27C28.8 39.3998 30 36.2998 30 32.7998Z" stroke="#FD8A3F" stroke-width="2" stroke-miterlimit="10" stroke-linejoin="bevel"/>
<path d="M18.8 27.3998C21.451 27.3998 23.6 25.2508 23.6 22.5998C23.6 19.9488 21.451 17.7998 18.8 17.7998C16.149 17.7998 14 19.9488 14 22.5998C14 25.2508 16.149 27.3998 18.8 27.3998Z" stroke="#FD8A3F" stroke-width="2" stroke-miterlimit="10" stroke-linejoin="bevel"/>
<path d="M29.9008 25.5L37.0008 28.6V41.8L29.3008 38" stroke="#FD8A3F" stroke-width="2" stroke-miterlimit="10" stroke-linejoin="bevel"/>
<path d="M8.2 25.5L1 28.6V41.8L8.8 38" stroke="#FD8A3F" stroke-width="2" stroke-miterlimit="10" stroke-linejoin="bevel"/>
<path d="M19 44.7998V56.7998" stroke="#FD8A3F" stroke-width="2" stroke-miterlimit="10" stroke-linejoin="bevel"/>
<path d="M24 44.7998V52.7998" stroke="#FD8A3F" stroke-width="2" stroke-miterlimit="10" stroke-linejoin="bevel"/>
<path d="M14 44.7998V52.7998" stroke="#FD8A3F" stroke-width="2" stroke-miterlimit="10" stroke-linejoin="bevel"/>
</svg>
