<svg width="21" height="24" viewBox="0 0 21 24" fill="none" xmlns="http://www.w3.org/2000/svg">
<path d="M10.5813 13.0349C10.5582 13.0349 10.5351 13.0349 10.5073 13.0349C10.4981 13.0349 10.4888 13.0349 10.4796 13.0349C10.4657 13.0349 10.4472 13.0349 10.4333 13.0349C9.07812 13.0118 7.98193 12.5354 7.17251 11.6242C5.39179 9.61686 5.6878 6.17567 5.72018 5.84727C5.83581 3.38201 7.00138 2.20257 7.96343 1.65216C8.68035 1.24051 9.51752 1.0185 10.4518 1H10.4842C10.4888 1 10.4981 1 10.5027 1H10.5305C11.0439 1 12.0522 1.08325 13.0188 1.63366C13.9901 2.18407 15.1742 3.36351 15.2898 5.84727C15.3222 6.17567 15.6182 9.61686 13.8375 11.6242C13.0327 12.5354 11.9365 13.0118 10.5813 13.0349ZM14.0549 5.96291C14.0549 5.94903 14.0503 5.93515 14.0503 5.9259C13.8976 2.60959 11.5434 2.25345 10.5351 2.25345H10.5166C10.5073 2.25345 10.4935 2.25345 10.4796 2.25345C9.23075 2.2812 7.10776 2.78998 6.96438 5.9259C6.96438 5.93978 6.96438 5.95365 6.95975 5.96291C6.95513 5.99528 6.63136 9.14046 8.10219 10.7963C8.68497 11.4531 9.46202 11.7769 10.4842 11.7861C10.4935 11.7861 10.4981 11.7861 10.5073 11.7861C10.5166 11.7861 10.5212 11.7861 10.5305 11.7861C11.548 11.7769 12.3297 11.4531 12.9078 10.7963C14.374 9.14971 14.0595 5.99066 14.0549 5.96291Z" fill="#7547DE" stroke="#7547DE" stroke-width="0.6"/>
<path d="M1.0028 18.7423C1.0028 18.7376 1.0028 18.733 1.0028 18.7284C1.0028 18.6914 1.00742 18.6544 1.00742 18.6128C1.03517 17.697 1.0953 15.5555 3.10266 14.8709C3.11654 14.8663 3.13504 14.8617 3.14892 14.857C5.23491 14.3251 6.96938 13.1226 6.98788 13.1087C7.27002 12.9098 7.65855 12.9792 7.85743 13.2613C8.05632 13.5435 7.98694 13.932 7.7048 14.1309C7.62617 14.1864 5.78531 15.4676 3.48193 16.0596C2.40425 16.4435 2.28399 17.5952 2.25162 18.6498C2.25162 18.6914 2.25162 18.7284 2.24699 18.7654C2.24237 19.1817 2.27012 19.8246 2.34412 20.1946C3.09341 20.6201 6.03045 22.091 10.4985 22.091C14.948 22.091 17.9035 20.6155 18.6574 20.19C18.7314 19.82 18.7638 19.177 18.7545 18.7608C18.7545 18.7238 18.7499 18.6868 18.7499 18.6451C18.7175 17.5906 18.5973 16.4389 17.5196 16.055C15.2162 15.463 13.3754 14.1771 13.2967 14.1263C13.0146 13.9274 12.9452 13.5388 13.1441 13.2567C13.343 12.9746 13.7315 12.9052 14.0137 13.1041C14.0322 13.1179 15.7574 14.3205 17.8526 14.8524C17.8711 14.857 17.885 14.8617 17.8989 14.8663C19.9062 15.5555 19.9664 17.697 19.9941 18.6081C19.9941 18.6498 19.9941 18.6868 19.9987 18.7238C19.9987 18.7284 19.9987 18.733 19.9987 18.7376C20.0034 18.9782 20.008 20.2131 19.7629 20.8329C19.7166 20.9531 19.6333 21.0549 19.5223 21.1243C19.3836 21.2168 16.058 23.3352 10.4938 23.3352C4.92964 23.3352 1.60408 21.2122 1.46532 21.1243C1.35894 21.0549 1.27106 20.9531 1.22481 20.8329C0.993544 20.2177 0.99817 18.9828 1.0028 18.7423Z" fill="#7547DE" stroke="#7547DE" stroke-width="0.6"/>
</svg>
