<svg width="29" height="33" viewBox="0 0 29 33" fill="none" xmlns="http://www.w3.org/2000/svg">
<path d="M24.8507 19.8712L26.3978 15.8364C26.6567 15.1597 26.1583 14.4378 25.4268 14.4378H21.64C22.352 13.2196 22.7922 11.821 22.7922 10.3128V10.2934C25.3297 9.79071 26.935 9.06239 26.935 8.25028C26.935 7.39305 25.1679 6.63251 22.3973 6.12333C21.8018 4.00926 20.6496 1.88231 19.7692 0.786609C19.1542 0.0196171 18.0926 -0.218859 17.2123 0.219422L15.4257 1.10887C14.8431 1.39891 14.1569 1.39891 13.5743 1.10887L11.7877 0.219422C10.9074 -0.218859 9.84576 0.0196171 9.2308 0.786609C8.35692 1.88231 7.19821 4.00926 6.60268 6.12333C3.83862 6.63251 2.07143 7.39305 2.07143 8.25028C2.07143 9.06239 3.67679 9.79071 6.21429 10.2934V10.3128C6.21429 11.821 6.65446 13.2196 7.36652 14.4378H3.64442C2.9 14.4378 2.40156 15.1919 2.69286 15.8751L4.36295 19.7552C1.76719 21.2569 0 24.022 0 27.2253V30.1128C0 31.7048 1.30112 33.0003 2.9 33.0003H26.1C27.6989 33.0003 29 31.7048 29 30.1128V27.2253C29 24.1057 27.3299 21.3987 24.8507 19.8712V19.8712ZM11.3929 30.9378L8.7 18.5628L11.9107 20.6253L13.4643 23.2034L11.3929 30.9378ZM17.6071 30.9378L15.5357 23.2034L17.0893 20.6253L20.3 18.5628L17.6071 30.9378ZM20.3065 11.6985C20.054 12.4655 19.8533 13.2841 19.2384 13.8513C18.5846 14.4507 16.1312 15.295 15.0955 12.2399C14.9143 11.6985 14.0987 11.6985 13.9109 12.2399C12.8105 15.4755 10.2859 14.3282 9.76808 13.8513C9.15312 13.2841 8.94598 12.4655 8.7 11.6985C8.64821 11.5374 8.29219 11.3311 8.29219 11.3247V10.6286C10.1241 10.8606 12.2408 11.0024 14.5065 11.0024C16.7721 11.0024 18.8888 10.8671 20.7208 10.6286V11.3247C20.7143 11.3311 20.3583 11.5309 20.3065 11.6985Z" fill="#37B4FB"/>
</svg>
