<svg width="24" height="18" viewBox="0 0 24 18" fill="none" xmlns="http://www.w3.org/2000/svg">
<rect x="0.5" y="0.928711" width="23" height="16.1429" rx="3.5" fill="white" stroke="#F5F5F5"/>
<mask id="mask0" mask-type="alpha" maskUnits="userSpaceOnUse" x="0" y="0" width="24" height="18">
<rect x="0.5" y="0.928711" width="23" height="16.1429" rx="3.5" fill="white" stroke="white"/>
</mask>
<g mask="url(#mask0)">
<path fill-rule="evenodd" clip-rule="evenodd" d="M12 13C14.2091 13 16 11.2091 16 9C16 6.79086 14.2091 5 12 5C9.79086 5 8 6.79086 8 9C8 11.2091 9.79086 13 12 13Z" fill="#E01B41"/>
<mask id="mask1" mask-type="alpha" maskUnits="userSpaceOnUse" x="8" y="5" width="8" height="8">
<path fill-rule="evenodd" clip-rule="evenodd" d="M12 13C14.2091 13 16 11.2091 16 9C16 6.79086 14.2091 5 12 5C9.79086 5 8 6.79086 8 9C8 11.2091 9.79086 13 12 13Z" fill="white"/>
</mask>
<g mask="url(#mask1)">
<path fill-rule="evenodd" clip-rule="evenodd" d="M8.00012 9.57185C9.14298 10.6433 10.8573 11.2861 12.0001 9.57185C13.143 7.85756 15.4287 7.85756 16.0001 9.57185C16.5716 11.2861 16.0001 13.0004 16.0001 13.0004H8.00012C8.00012 13.0004 6.85727 8.50042 8.00012 9.57185Z" fill="#0E4B9C"/>
</g>
<path opacity="0.75" fill-rule="evenodd" clip-rule="evenodd" d="M18.0717 3.51513C17.7984 3.67292 17.7047 4.0224 17.8625 4.29571L19.0054 6.2752C19.1632 6.54851 19.5126 6.64215 19.7859 6.48436C20.0593 6.32656 20.1529 5.97708 19.9951 5.70377L18.8522 3.72429C18.6945 3.45098 18.345 3.35733 18.0717 3.51513ZM16.5869 4.37227C16.3136 4.53007 16.22 4.87955 16.3778 5.15286L17.5206 7.13234C17.6784 7.40565 18.0279 7.4993 18.3012 7.3415C18.5745 7.18371 18.6682 6.83423 18.5104 6.56092L17.3675 4.58143C17.2097 4.30812 16.8602 4.21448 16.5869 4.37227ZM4.00634 12.2958C3.84854 12.0225 3.94219 11.673 4.2155 11.5152C4.48881 11.3574 4.83829 11.4511 4.99608 11.7244L6.13894 13.7039C6.29674 13.9772 6.20309 14.3267 5.92978 14.4845C5.65647 14.6423 5.30699 14.5486 5.1492 14.2753L4.00634 12.2958ZM5.70025 10.6581C5.42694 10.8159 5.33329 11.1654 5.49109 11.4387L6.63395 13.4181C6.79174 13.6915 7.14122 13.7851 7.41453 13.6273C7.68784 13.4695 7.78149 13.12 7.62369 12.8467L6.48083 10.8672C6.32304 10.5939 5.97356 10.5003 5.70025 10.6581ZM17.5206 10.8671C17.6784 10.5937 18.0279 10.5001 18.3012 10.6579C18.5745 10.8157 18.6682 11.1652 18.5104 11.4385L17.3675 13.418C17.2097 13.6913 16.8602 13.7849 16.5869 13.6271C16.3136 13.4693 16.22 13.1198 16.3778 12.8465L17.5206 10.8671ZM19.7859 11.515C19.5126 11.3572 19.1632 11.4509 19.0054 11.7242L17.8625 13.7037C17.7047 13.977 17.7984 14.3265 18.0717 14.4843C18.345 14.6421 18.6945 14.5484 18.8522 14.2751L19.9951 12.2956C20.1529 12.0223 20.0593 11.6728 19.7859 11.515ZM5.1492 3.72438C5.30699 3.45107 5.65647 3.35743 5.92978 3.51522C6.20309 3.67302 6.29674 4.0225 6.13894 4.29581L4.99608 6.27529C4.83829 6.5486 4.48881 6.64225 4.2155 6.48445C3.94219 6.32666 3.84854 5.97718 4.00634 5.70387L5.1492 3.72438ZM7.41453 4.37236C7.14122 4.21457 6.79174 4.30821 6.63395 4.58152L5.49109 6.56101C5.33329 6.83432 5.42694 7.1838 5.70025 7.34159C5.97356 7.49939 6.32304 7.40575 6.48083 7.13244L7.62369 5.15295C7.78149 4.87964 7.68784 4.53016 7.41453 4.37236Z" fill="#262626"/>
</g>
</svg>
