<svg width="11" height="11" viewBox="0 0 11 11" fill="none" xmlns="http://www.w3.org/2000/svg">
<path d="M5.06043 0.810939C5.24959 0.461971 5.75041 0.461971 5.93957 0.810939L7.36257 3.43613C7.40875 3.52131 7.47869 3.59125 7.56387 3.63743L10.1891 5.06043C10.538 5.24959 10.538 5.75041 10.1891 5.93957L7.56387 7.36257C7.47869 7.40875 7.40875 7.47869 7.36257 7.56387L5.93957 10.1891C5.75041 10.538 5.24959 10.538 5.06043 10.1891L3.63743 7.56387C3.59125 7.47869 3.52131 7.40875 3.43613 7.36257L0.810939 5.93957C0.461971 5.75041 0.461971 5.24959 0.810939 5.06043L3.43613 3.63743C3.52131 3.59125 3.59125 3.52131 3.63743 3.43613L5.06043 0.810939Z" fill="white"/>
</svg>
