<svg width="467" height="540" viewBox="0 0 467 540" fill="none" xmlns="http://www.w3.org/2000/svg">
<mask id="mask0" mask-type="alpha" maskUnits="userSpaceOnUse" x="0" y="0" width="467" height="540">
<rect x="0.5" y="0.5" width="466" height="539" rx="11.5" fill="#F7F7F7"/>
<rect x="0.5" y="0.5" width="466" height="539" rx="11.5" fill="url(#paint0_linear)"/>
<rect x="0.5" y="0.5" width="466" height="539" rx="11.5" stroke="#E3E3E3"/>
</mask>
<g mask="url(#mask0)">
<path d="M470.021 870.547H280.117C254.621 870.547 234 849.926 234 824.43V346.117C234 320.621 254.621 300 280.117 300H469.882C495.379 300 515.999 320.621 515.999 346.117V824.43C516.139 849.926 495.379 870.547 470.021 870.547Z" fill="#0E0E0E"/>
<path d="M463.192 856.475H286.246C266.183 856.475 249.881 840.173 249.881 820.11V350.158C249.881 330.095 266.183 313.793 286.246 313.793H463.192C483.255 313.793 499.557 330.095 499.557 350.158V820.11C499.557 840.173 483.255 856.475 463.192 856.475Z" fill="#F4F6FB"/>
<path d="M250 342.423C250 326.679 262.679 314 278.284 314H471.392C486.996 314 499.675 326.679 499.675 342.423V659.533H250V342.423Z" fill="#241C87"/>
<path d="M299.625 308.22V316.022C299.625 324.8 306.731 331.906 315.37 331.906H426.274C435.052 331.906 442.018 324.8 442.018 316.022V304.737L299.625 308.22Z" fill="#0E0E0E"/>
<path d="M440 490.5C440 526.675 410.451 556 374 556C337.549 556 308 526.675 308 490.5C308 454.325 337.549 425 374 425C410.451 425 440 454.325 440 490.5Z" fill="white"/>
<path d="M440 490.5C440 526.675 410.451 556 374 556C337.549 556 308 526.675 308 490.5C308 454.325 337.549 425 374 425C410.451 425 440 454.325 440 490.5Z" fill="url(#paint1_linear)"/>
<path d="M385.7 491.076C385.7 490.376 385.165 489.841 384.465 489.841C383.765 489.841 383.23 490.376 383.23 491.076C383.23 495.894 379.318 499.806 374.5 499.806C369.683 499.806 365.771 495.894 365.771 491.076C365.771 490.376 365.236 489.841 364.536 489.841C363.836 489.841 363.3 490.376 363.3 491.076C363.3 496.8 367.583 501.618 373.265 502.235V505.529H368.777C368.077 505.529 367.541 506.065 367.541 506.765C367.541 507.465 368.077 508 368.777 508H380.224C380.924 508 381.459 507.465 381.459 506.765C381.459 506.065 380.924 505.529 380.224 505.529H375.736V502.235C381.418 501.618 385.7 496.8 385.7 491.076Z" fill="white"/>
<path d="M374.5 473C370.712 473 367.624 476.088 367.624 479.876V491.035C367.624 494.865 370.712 497.912 374.5 497.953C378.288 497.953 381.376 494.865 381.376 491.076V479.876C381.376 476.088 378.288 473 374.5 473Z" fill="white"/>
</g>
<defs>
<linearGradient id="paint0_linear" x1="234" y1="6.60921e-06" x2="201.625" y2="352.558" gradientUnits="userSpaceOnUse">
<stop stop-color="#32B9FC"/>
<stop offset="1" stop-color="#7F50E4"/>
</linearGradient>
<linearGradient id="paint1_linear" x1="348.403" y1="459.137" x2="368.191" y2="547.476" gradientUnits="userSpaceOnUse">
<stop stop-color="#B9A5FF"/>
<stop offset="1" stop-color="#7E61E1"/>
</linearGradient>
</defs>
</svg>
