<svg width="40" height="37" viewBox="0 0 40 37" fill="none" xmlns="http://www.w3.org/2000/svg">
<path d="M32.375 0.75C28.5938 0.75 25.5 3.84375 25.5 7.625C25.5 8.0977 25.5537 8.5488 25.6396 9L13.1787 14.6074C11.9219 12.8887 9.9023 11.75 7.625 11.75C3.84375 11.75 0.75 14.8438 0.75 18.625C0.75 22.4062 3.84375 25.5 7.625 25.5C9.9131 25.5 11.9541 24.3506 13.2002 22.6104L25.6719 28.1533C25.5645 28.626 25.5 29.1201 25.5 29.625C25.5 33.4062 28.5938 36.5 32.375 36.5C36.1562 36.5 39.25 33.4062 39.25 29.625C39.25 25.8438 36.1562 22.75 32.375 22.75C30.0869 22.75 28.0459 23.8994 26.7998 25.6396L14.3281 20.1074C14.4355 19.624 14.5 19.1299 14.5 18.625C14.5 18.1094 14.4355 17.6045 14.3281 17.1211L26.7246 11.5137C27.9707 13.3184 30.0439 14.5 32.375 14.5C36.1562 14.5 39.25 11.4062 39.25 7.625C39.25 3.84375 36.1562 0.75 32.375 0.75ZM32.375 3.5C34.6738 3.5 36.5 5.32617 36.5 7.625C36.5 9.9238 34.6738 11.75 32.375 11.75C30.0762 11.75 28.25 9.9238 28.25 7.625C28.25 5.32617 30.0762 3.5 32.375 3.5ZM7.625 14.5C9.9238 14.5 11.75 16.3262 11.75 18.625C11.75 20.9238 9.9238 22.75 7.625 22.75C5.32617 22.75 3.5 20.9238 3.5 18.625C3.5 16.3262 5.32617 14.5 7.625 14.5ZM32.375 25.5C34.6738 25.5 36.5 27.3262 36.5 29.625C36.5 31.9238 34.6738 33.75 32.375 33.75C30.0762 33.75 28.25 31.9238 28.25 29.625C28.25 27.3262 30.0762 25.5 32.375 25.5Z" fill="#FD8A3F"/>
</svg>
